<svg width="60" height="60" viewBox="0 0 60 60" fill="none" xmlns="http://www.w3.org/2000/svg">
<path fill-rule="evenodd" clip-rule="evenodd" d="M33.4863 32.1815H33.0761C32.6472 32.1815 32.2992 31.8347 32.2992 31.4072C32.2992 30.9783 32.6472 30.6321 33.0761 30.6321H33.4863C33.9152 30.6321 34.2632 30.9783 34.2632 31.4072C34.2632 31.8347 33.915 32.1815 33.4863 32.1815ZM30.2046 32.1815H29.7882C29.3594 32.1815 29.0176 31.8347 29.0176 31.4072C29.0176 30.9783 29.3595 30.6321 29.7882 30.6321H30.2046C30.6335 30.6321 30.9815 30.9783 30.9815 31.4072C30.9815 31.8347 30.6335 32.1815 30.2046 32.1815ZM26.9231 32.1815H26.5067C26.0778 32.1815 25.7298 31.8347 25.7298 31.4072C25.7298 30.9783 26.0778 30.6321 26.5067 30.6321H26.9231C27.352 30.6321 27.7 30.9783 27.7 31.4072C27.7 31.8347 27.352 32.1815 26.9231 32.1815ZM35.9039 34.6613C35.9039 35.0889 35.5559 35.4357 35.127 35.4357H34.7106C34.288 35.4357 33.94 35.0889 33.94 34.6613C33.94 34.2338 34.288 33.8864 34.7106 33.8864H35.127C35.5558 33.8864 35.9039 34.2338 35.9039 34.6613ZM32.6223 34.6613C32.6223 35.0889 32.2743 35.4357 31.8454 35.4357H31.429C31.0064 35.4357 30.6584 35.0889 30.6584 34.6613C30.6584 34.2338 31.0064 33.8864 31.429 33.8864H31.8454C32.2743 33.8864 32.6223 34.2338 32.6223 34.6613ZM29.3408 34.6613C29.3408 35.0889 28.9928 35.4357 28.5639 35.4357H28.1475C27.7186 35.4357 27.3768 35.0889 27.3768 34.6613C27.3768 34.2338 27.7187 33.8864 28.1475 33.8864H28.5639C28.9928 33.8864 29.3408 34.2338 29.3408 34.6613ZM26.0592 34.6613C26.0592 35.0889 25.7112 35.4357 25.2824 35.4357H24.866C24.4371 35.4357 24.0891 35.0889 24.0891 34.6613C24.0891 34.2338 24.4372 33.8864 24.866 33.8864H25.2824C25.7111 33.8864 26.0592 34.2338 26.0592 34.6613ZM47.1905 38.0779C47.1905 34.8286 46.277 31.6652 44.5553 28.9286C43.3744 27.0535 41.8456 25.4332 40.068 24.1448L40.8885 24.1367C41.3174 24.1324 41.6654 23.7825 41.6591 23.3542C41.6529 22.9259 41.3049 22.5791 40.876 22.5867L37.3458 22.6227C37.3458 22.6227 37.3458 22.6227 37.3396 22.6227C37.3085 22.6239 37.2774 22.6258 37.2526 22.6301C37.2464 22.6301 37.2401 22.6315 37.234 22.6321C37.2092 22.6364 37.1843 22.6407 37.1656 22.6469C37.1531 22.6501 37.147 22.6519 37.1345 22.655C37.1159 22.6612 37.0972 22.6675 37.0724 22.6755C37.0661 22.6786 37.0599 22.6804 37.0538 22.6849C37.0227 22.696 36.9978 22.7085 36.973 22.7234C36.9482 22.7377 36.9233 22.7539 36.8984 22.7719C36.8921 22.7762 36.886 22.7799 36.8798 22.7849C36.8612 22.7986 36.8424 22.8141 36.8301 22.8297C36.8238 22.8346 36.8176 22.8403 36.8115 22.8452C36.7929 22.8638 36.7742 22.8831 36.7556 22.9042C36.7556 22.9067 36.7493 22.9093 36.7493 22.9123C36.7307 22.9359 36.712 22.9607 36.6996 22.9875C36.6934 22.9887 36.6934 22.99 36.6934 22.9906C36.6934 22.9955 36.6872 23.0012 36.6872 23.0062C36.6809 23.0205 36.6686 23.0354 36.6623 23.0497C36.6561 23.0559 36.6561 23.0608 36.6561 23.0671C36.6498 23.0764 36.6436 23.0857 36.6436 23.095C36.6312 23.1149 36.625 23.1341 36.6188 23.1554C36.6188 23.1634 36.6125 23.1716 36.6125 23.1802C36.6063 23.2057 36.5939 23.2324 36.5939 23.2586C36.5939 23.2617 36.5939 23.2636 36.5877 23.2654C36.5877 23.2953 36.5814 23.3264 36.5814 23.3561V23.3729V23.4451V23.4712C36.5877 23.4929 36.5877 23.5147 36.5939 23.5365V23.5601C36.6002 23.5894 36.6125 23.6174 36.6188 23.6453C36.6188 23.6504 36.625 23.6553 36.625 23.6608C36.6312 23.6831 36.6436 23.7062 36.6561 23.7273V23.7391L38.2161 26.9075C38.3466 27.1822 38.6262 27.3413 38.9122 27.3413C39.024 27.3413 39.1421 27.3159 39.2541 27.2618C39.6332 27.0728 39.7948 26.6092 39.6083 26.2245L39.2168 25.4383C43.2317 28.355 45.6431 33.0002 45.6431 38.0779C45.6431 45.2363 40.8016 51.4695 33.878 53.2364C33.4616 53.3427 33.2129 53.764 33.3186 54.1786C33.4056 54.5285 33.7226 54.7622 34.0644 54.7622C34.1328 54.7622 34.195 54.7547 34.2572 54.7385C41.8703 52.7957 47.1905 45.9455 47.1905 38.0779ZM26.6932 54.1264C26.6932 54.1059 26.6994 54.0854 26.6994 54.0637C26.6994 54.0556 26.6994 54.0476 26.6994 54.0382C26.7057 53.978 26.7057 53.9182 26.6932 53.8592C26.6932 53.8529 26.6932 53.8468 26.687 53.8406C26.687 53.8183 26.6807 53.7952 26.6746 53.7728C26.6684 53.7641 26.6684 53.756 26.6684 53.7479C26.6559 53.7262 26.6498 53.705 26.6435 53.6839C26.6373 53.677 26.6373 53.6702 26.631 53.6639C26.6187 53.6372 26.6062 53.6111 26.5937 53.5863C26.5875 53.5814 26.5812 53.5763 26.5812 53.5701C26.5689 53.5502 26.5564 53.5304 26.5378 53.5117C26.5378 53.5091 26.5378 53.5048 26.5316 53.5017L24.319 50.7515C24.0518 50.4178 23.567 50.365 23.2313 50.6329C22.8957 50.9013 22.846 51.3886 23.1132 51.7229L23.6352 52.3768C18.0665 49.9051 14.3561 44.3469 14.3561 38.0777C14.3561 32.1237 17.6625 26.7638 22.9888 24.0901C23.3741 23.8979 23.5295 23.4319 23.3369 23.0497C23.1442 22.6675 22.6781 22.5133 22.2928 22.7054C19.4898 24.115 17.1156 26.266 15.4376 28.9286C13.716 31.6651 12.8086 34.8285 12.8086 38.0779C12.8086 45.0145 16.9416 51.1593 23.1381 53.848L22.3176 54.0413C21.9012 54.1389 21.6402 54.5565 21.7396 54.973C21.8204 55.3304 22.1374 55.5716 22.4916 55.5716C22.5476 55.5716 22.6097 55.5641 22.6719 55.5505L26.1088 54.7419C26.1212 54.7376 26.1399 54.7325 26.1522 54.727C26.1647 54.7233 26.1771 54.7208 26.1896 54.7171C26.2269 54.7034 26.258 54.6891 26.2952 54.6717C26.2952 54.6686 26.3014 54.6661 26.3076 54.6631C26.3325 54.6476 26.3636 54.6295 26.3884 54.6097C26.4008 54.6022 26.407 54.5954 26.4195 54.5866C26.4381 54.5704 26.4568 54.553 26.4754 54.5344C26.4878 54.5251 26.494 54.5151 26.5002 54.5065C26.5251 54.4822 26.5437 54.4568 26.5624 54.4312C26.5686 54.4256 26.5686 54.4207 26.5748 54.4157C26.5934 54.3847 26.6121 54.3505 26.6307 54.3163C26.6369 54.3045 26.6369 54.2932 26.6432 54.2821C26.6494 54.2678 26.6555 54.2541 26.6618 54.2398C26.668 54.2261 26.668 54.2131 26.6742 54.1994C26.6742 54.1919 26.6805 54.1857 26.6805 54.1789C26.6805 54.1714 26.6805 54.1652 26.6867 54.1577C26.687 54.1475 26.687 54.137 26.6932 54.1264ZM32.5602 47.1872C32.3116 47.2574 32.119 47.4476 32.0381 47.6931L31.2239 50.1965C31.2177 50.2145 31.2114 50.2165 31.1928 50.2165H28.8C28.7814 50.2165 28.7814 50.2147 28.7752 50.1965L27.961 47.6931C27.8802 47.4476 27.6813 47.2574 27.4328 47.1872C26.7243 46.9864 26.0344 46.7006 25.388 46.3376C25.2699 46.2717 25.1393 46.2388 25.0089 46.2388C24.8846 46.2388 24.7665 46.2668 24.6546 46.3233L22.3053 47.5185C22.2928 47.5271 22.2867 47.5259 22.2742 47.5135L20.5836 45.8192C20.5713 45.8067 20.565 45.8024 20.5774 45.7862L21.7707 43.4399C21.8888 43.2094 21.8825 42.9346 21.7583 42.709C21.3916 42.0614 21.1058 41.3721 20.9069 40.6618C20.8385 40.4114 20.6459 40.2143 20.4035 40.1348L17.8989 39.3206C17.8803 39.3157 17.8803 39.3125 17.8803 39.2944V38.8712H22.8524C23.2377 42.4729 26.2955 45.2858 29.9997 45.2858C33.6976 45.2858 36.7554 42.4729 37.147 38.8712H42.1191V39.2944C42.1191 39.3124 42.1128 39.3155 42.1005 39.3206L39.5958 40.1348C39.3472 40.2143 39.1607 40.4114 39.0924 40.6606C38.8874 41.3722 38.6015 42.0615 38.241 42.7091C38.1105 42.9347 38.1044 43.2094 38.2224 43.4401L39.422 45.7863C39.4282 45.8025 39.4282 45.8056 39.4157 45.8193L37.719 47.5136C37.7067 47.5259 37.7067 47.5273 37.688 47.5186L35.3448 46.3234C35.1149 46.2059 34.8352 46.211 34.6114 46.3377C33.9648 46.7019 33.275 46.9865 32.5602 47.1872ZM35.5808 38.8714C35.2016 41.6153 32.8461 43.7366 29.9996 43.7366C27.153 43.7366 24.7913 41.6153 24.4122 38.8714H35.5808ZM29.9996 28.5427C24.9902 28.5427 20.8696 32.4153 20.478 37.3215H39.5211C39.1233 32.4153 35.0027 28.5427 29.9996 28.5427ZM28.0108 11.0807C28.0108 9.25843 28.7255 7.53259 29.9996 6.25291C31.2675 7.53259 31.9884 9.25855 31.9884 11.0807C31.9884 12.491 31.5533 13.8421 30.7764 14.9745V12.1025C30.7764 11.675 30.4284 11.3275 29.9996 11.3275C29.5707 11.3275 29.2227 11.6749 29.2227 12.1025V14.9745C28.4396 13.8421 28.0108 12.491 28.0108 11.0807ZM21.7149 18.7588C20.7267 18.1876 19.9932 17.2815 19.6452 16.2125C20.7453 15.9807 21.8951 16.1597 22.8833 16.7308C23.8715 17.3014 24.605 18.2081 24.953 19.2765C23.8528 19.5083 22.7031 19.3294 21.7149 18.7588ZM37.1158 16.7309C38.104 16.1597 39.2476 15.9808 40.3539 16.2127C39.9996 17.2816 39.2724 18.1879 38.2842 18.7589C37.296 19.3294 36.1463 19.5085 35.0462 19.2766C35.3943 18.2083 36.1215 17.3014 37.1158 16.7309ZM34.9965 47.8876L36.9852 48.8989C37.5944 49.2109 38.3339 49.0947 38.8187 48.6086L40.5093 46.9143C40.9941 46.4295 41.1122 45.6943 40.8014 45.0827L39.7883 43.0977C40.0556 42.5781 40.2794 42.0368 40.4595 41.483L42.5788 40.795C43.2314 40.5831 43.6665 39.9796 43.6665 39.2947V38.0963C43.6665 37.6688 43.3184 37.3214 42.8896 37.3214H41.0748C40.6895 31.816 36.2768 27.4022 30.7764 27.0199V22.6376L34.201 20.6581C34.7853 20.8358 35.388 20.9253 35.9909 20.9253C37.0538 20.9253 38.1102 20.6475 39.0611 20.1013C40.646 19.1833 41.7336 17.6177 42.0443 15.806C42.1065 15.4393 41.8952 15.0801 41.5472 14.9495C39.8255 14.3113 37.9238 14.4704 36.3389 15.389C34.8536 16.2435 33.8093 17.6606 33.424 19.3156L30.7764 20.8483V17.3095C32.5353 15.7166 33.536 13.4673 33.536 11.0807C33.536 8.56987 32.4297 6.21127 30.4906 4.60771C30.2048 4.37035 29.7882 4.37035 29.5024 4.60771C27.5694 6.21115 26.457 8.56987 26.457 11.0807C26.457 13.4673 27.4638 15.7166 29.2228 17.3095V20.8483L26.569 19.3156C26.1837 17.6618 25.1396 16.2435 23.6603 15.389C22.0692 14.4704 20.1675 14.3113 18.4458 14.9495C18.0977 15.0801 17.8926 15.4393 17.9548 15.806C18.2594 17.6176 19.347 19.1827 20.938 20.1013C21.8826 20.6475 22.9392 20.9253 24.0082 20.9253C24.6048 20.9253 25.2077 20.8358 25.792 20.6581L29.2227 22.6376V27.0199C23.7161 27.4021 19.3034 31.816 18.9243 37.3214H17.1033C16.6744 37.3214 16.3264 37.6688 16.3264 38.0963V39.2947C16.3264 39.9796 16.7676 40.5831 17.4202 40.795L19.5395 41.483C19.7135 42.0368 19.9436 42.5775 20.2046 43.0977L19.1978 45.0827C18.8808 45.6943 18.9989 46.4295 19.4836 46.9143L21.1803 48.6098C21.6651 49.0946 22.3985 49.2107 23.0138 48.8989L24.9964 47.8876C25.5185 48.1531 26.0592 48.3773 26.6123 48.557L27.3022 50.6751C27.5135 51.3277 28.1164 51.7659 28.8 51.7659H31.1928C31.8827 51.7659 32.4856 51.3278 32.6969 50.6764L33.3868 48.5571C33.9399 48.3787 34.4806 48.1544 34.9965 47.8876Z" fill="#F26A21"/>
</svg>
