<svg width="60" height="60" viewBox="0 0 60 60" fill="none" xmlns="http://www.w3.org/2000/svg">
<path d="M48.4568 29.6995C48.0429 28.5365 46.3066 29.126 46.6807 30.2993C47.7454 33.455 45.919 36.7519 41.2498 40.1036C36.5806 36.7519 34.7541 33.455 35.8189 30.2992C35.9846 29.8085 35.7209 29.2766 35.2302 29.1113C34.7385 28.9424 34.2075 29.2093 34.0427 29.6995C32.7274 33.5964 34.6116 37.478 39.6433 41.2494C34.6116 45.0207 32.7274 48.9024 34.0427 52.7992C34.2075 53.289 34.7385 53.555 35.2302 53.3874C35.7209 53.2222 35.9846 52.6903 35.8189 52.1995C34.7541 49.0437 36.5806 45.7469 41.2498 42.3952C45.919 45.7469 47.7454 49.0437 46.6807 52.1995C46.4677 52.7931 46.9422 53.4464 47.5688 53.4373C47.9597 53.4373 48.325 53.1901 48.4568 52.7992C49.7722 48.9024 47.8879 45.0207 42.8563 41.2494C47.8879 37.478 49.7722 33.5964 48.4568 29.6995Z" fill="#F26A21"/>
<path d="M42.2442 24.4055C36.9934 24.0844 31.7691 26.3173 28.3987 30.3262C19.0689 41.0397 27.0334 58.2469 41.2502 58.1256C63.0037 57.3483 63.9013 26.4317 42.2442 24.4055ZM41.25 56.2507C28.6029 56.3556 21.525 41.0462 29.8416 31.5237C38.7965 20.9785 56.2606 27.3758 56.2499 41.2509C56.25 49.5216 49.5208 56.2507 41.25 56.2507Z" fill="#F26A21"/>
<path d="M43.1253 47.8125C44.3565 47.7921 44.3584 45.9582 43.1253 45.9375H39.3753C38.144 45.9579 38.1422 47.7918 39.3753 47.8125H43.1253Z" fill="#F26A21"/>
<path d="M45.0002 49.6875H37.5002C36.2701 49.7075 36.2662 51.5417 37.5003 51.5625H45.0002C46.2303 51.5425 46.2343 49.7083 45.0002 49.6875Z" fill="#F26A21"/>
<path d="M39.3753 34.6875C38.144 34.7079 38.1422 36.5418 39.3753 36.5625H43.1253C44.3565 36.5421 44.3584 34.7082 43.1253 34.6875H39.3753Z" fill="#F26A21"/>
<path d="M37.5002 32.8125H45.0002C46.2303 32.7925 46.2343 30.9583 45.0002 30.9375H37.5002C36.2701 30.9575 36.2662 32.7917 37.5002 32.8125Z" fill="#F26A21"/>
<path d="M23.4375 31.875H24.375C25.6054 31.8548 25.6088 30.0208 24.375 30C19.0855 29.9995 9.07962 30.0003 3.75 30V3.75H41.25V21.5625C41.25 22.0802 41.6693 22.5 42.1875 22.5C42.7057 22.5 43.125 22.0802 43.125 21.5625V2.8125C43.125 2.29477 42.7057 1.875 42.1875 1.875H2.8125C2.29431 1.875 1.875 2.29477 1.875 2.8125V30.9375C1.875 31.4552 2.29431 31.875 2.8125 31.875H13.4561L12.2214 36.3112C12.0468 36.8861 12.5228 37.516 13.125 37.5L22.5 37.5C23.0182 37.5 23.4375 37.0802 23.4375 36.5625C23.4375 36.0448 23.0182 35.625 22.5 35.625H14.3591L15.4028 31.875H23.4375Z" fill="#F26A21"/>
<path d="M25.5598 17.7797C25.0737 17.9574 24.8228 18.4952 25.0005 18.9818C25.7316 20.5275 27.8927 18.6805 28.5866 17.9877C30.9166 15.43 31.129 10.017 31.1363 9.78764C31.1455 9.52718 31.0457 9.27449 30.8607 9.09047C30.6749 8.90691 30.4259 8.80895 30.1613 8.81902C29.9558 8.82219 24.8839 9.07666 22.5441 11.6855C20.2678 8.29875 13.1691 7.69235 12.964 7.76536C12.7077 7.75884 12.4495 7.85314 12.2645 8.03716C12.0787 8.22163 11.9789 8.47478 11.989 8.7357C11.999 9.01311 12.2664 15.5655 15.0679 18.6472C16.4027 20.0988 18.459 20.9438 21.0188 21.0907C21.7714 21.1324 22.361 21.7646 22.361 22.53V25.3122C22.378 26.5387 24.2162 26.5486 24.236 25.3122C24.236 25.3122 24.236 22.53 24.236 22.53C24.236 20.7694 22.8682 19.3151 21.1241 19.2185C15.3952 19.1207 14.4416 14.0716 13.9436 9.73637C16.1122 9.98247 20.5312 10.9216 21.6346 13.8406C22.155 14.596 21.9706 16.5717 23.1593 16.5488C24.7756 16.4151 23.8038 14.3665 23.5174 13.5288C24.5678 11.6489 27.5587 11.0219 29.1807 10.7975C28.8535 13.2334 28.3079 16.8946 25.5598 17.7797Z" fill="#F26A21"/>
</svg>
