<svg width="60" height="60" viewBox="0 0 60 60" fill="none" xmlns="http://www.w3.org/2000/svg">
<path d="M29.9926 2C23.5869 2 17.3762 4.2062 12.4099 8.21751L12.4004 3.83765C12.3997 3.4511 12.0862 3.13844 11.7002 3.13844C11.6998 3.13844 11.6992 3.13844 11.6988 3.13844C11.3121 3.13913 10.9993 3.4535 11 3.84039L11.0127 9.71287C11.0133 10.0987 11.3258 10.4114 11.7115 10.4121L17.5584 10.4244H17.5598C17.9458 10.4244 18.2593 10.1117 18.26 9.72519C18.2607 9.33829 17.9478 9.02392 17.5612 9.02324L13.6487 9.01494C18.3045 5.38659 24.062 3.40116 29.9926 3.40116C44.6636 3.40116 56.5996 15.3438 56.5996 30.0232C56.5996 35.3579 55.0283 40.5048 52.0559 44.9074C51.8395 45.2279 51.9236 45.6634 52.2443 45.8799C52.3643 45.961 52.5007 46 52.6354 46C52.8604 46 53.0809 45.8919 53.2163 45.6914C56.3459 41.0566 58 35.6384 58 30.0232C58 14.5711 45.436 2 29.9926 2Z" fill="#F26A21"/>
<path d="M7.71374 14.1199C7.39539 13.9037 6.96334 13.9878 6.74884 14.3084C3.642 18.9432 2 24.3615 2 29.9767C2 45.4289 14.4725 58 29.8034 58C36.3369 58 42.6101 55.7006 47.6006 51.5046L47.6098 55.77C47.6105 56.1565 47.9217 56.4692 48.3049 56.4692H48.3063C48.6901 56.4685 49.0007 56.1541 49 55.7672L48.9874 49.8947C48.9868 49.5089 48.6766 49.1962 48.2937 49.1955L42.4894 49.1832C42.489 49.1832 42.4883 49.1832 42.488 49.1832C42.1048 49.1832 41.7936 49.4959 41.7929 49.8824C41.7922 50.2693 42.1028 50.5837 42.4866 50.5844L46.5112 50.593C41.8028 54.474 35.9238 56.5988 29.8034 56.5988C15.2392 56.5988 3.39017 44.6561 3.39017 29.9767C3.39017 24.642 4.95004 19.495 7.90075 15.0924C8.11559 14.7719 8.0321 14.3364 7.71374 14.1199Z" fill="#F26A21"/>
<path d="M14.306 24.5619C14.2048 24.8544 13.9458 25.0658 13.6311 25.1137L10.9225 25.5249C9.80868 25.6942 9 26.635 9 27.7614V32.2386C9 33.365 9.80868 34.3058 10.9228 34.4751L13.6307 34.8863C13.9458 34.9342 14.2048 35.1456 14.306 35.4381C14.5198 36.0559 14.7726 36.6661 15.0569 37.2518C15.1923 37.5306 15.1592 37.8631 14.9703 38.1193L13.3458 40.3254C12.6777 41.2322 12.7711 42.4692 13.5678 43.2662L16.7338 46.4325C17.5305 47.2289 18.7671 47.3219 19.675 46.6542L21.8804 45.0297C22.1376 44.8419 22.4705 44.8087 22.7482 44.9431C23.3339 45.2274 23.9441 45.4802 24.5619 45.694C24.8544 45.7952 25.0658 46.0542 25.1137 46.3689L25.5249 49.0775C25.6942 50.1913 26.635 51 27.7614 51H32.2386C33.365 51 34.3058 50.1913 34.4751 49.0772L34.8863 46.3693C34.9342 46.0542 35.1456 45.7952 35.4381 45.694C36.0559 45.4802 36.6661 45.2274 37.2518 44.9431C37.5302 44.8087 37.8638 44.8408 38.1193 45.0297L40.3254 46.6542C41.2319 47.3223 42.4688 47.2299 43.2662 46.4322L46.4325 43.2662C47.2289 42.4692 47.3223 41.2322 46.6542 40.325L45.0297 38.1196C44.8408 37.8631 44.8077 37.5306 44.9431 37.2518C45.2274 36.6661 45.4802 36.0559 45.694 35.4381C45.7952 35.1456 46.0542 34.9342 46.3689 34.8863L49.0775 34.4751C50.1913 34.3058 51 33.365 51 32.2386V27.7614C51 26.635 50.1913 25.6942 49.0772 25.5249L46.3693 25.1137C46.0542 25.0658 45.7952 24.8544 45.694 24.5619C45.4802 23.9441 45.2274 23.3339 44.9431 22.7482C44.8077 22.4694 44.8408 22.1369 45.0297 21.8807L46.6542 19.6746C47.3223 18.7678 47.2289 17.5308 46.4322 16.7338L43.2662 13.5675C42.4695 12.7711 41.2329 12.6781 40.325 13.3458L38.1196 14.9703C37.8634 15.1595 37.5302 15.192 37.2518 15.0569C36.6661 14.7726 36.0559 14.5198 35.4381 14.306C35.1456 14.2048 34.9342 13.9458 34.8863 13.6311L34.4751 10.9225C34.3058 9.80868 33.365 9 32.2386 9H27.7614C26.635 9 25.6942 9.80868 25.5249 10.9228L25.1137 13.6307C25.0658 13.9458 24.8544 14.2048 24.5619 14.306C23.9441 14.5198 23.3339 14.7726 22.7482 15.0569C22.4705 15.192 22.1369 15.1595 21.8807 14.9703L19.6746 13.3458C18.7688 12.6781 17.5312 12.7711 16.7338 13.5678L13.5675 16.7338C12.7711 17.5308 12.6777 18.7678 13.3458 19.675L14.9703 21.8804C15.1592 22.1369 15.1923 22.4694 15.0569 22.7482C14.7726 23.3339 14.5198 23.9441 14.306 24.5619ZM16.0985 21.0495L14.474 18.8441C14.2198 18.4986 14.2554 18.0279 14.5585 17.7244L17.7244 14.5588C18.0272 14.255 18.4989 14.2191 18.8437 14.474L21.0498 16.0985C21.7264 16.5973 22.6117 16.6807 23.3606 16.3171C23.8963 16.0571 24.4545 15.8259 25.0203 15.6299C25.8061 15.3579 26.3726 14.6724 26.4991 13.8411L26.9103 11.1332C26.9746 10.709 27.3328 10.4012 27.7614 10.4012H32.2386C32.6672 10.4012 33.0254 10.709 33.0897 11.1329L33.5009 13.8415C33.6274 14.6724 34.1939 15.3579 34.9797 15.6299C35.5455 15.8259 36.1037 16.0571 36.6394 16.3171C37.3879 16.6807 38.2732 16.5973 38.9505 16.0985L41.1559 14.474C41.5011 14.2191 41.9721 14.255 42.2756 14.5585L45.4412 17.7244C45.7446 18.0279 45.7802 18.4986 45.526 18.8437L43.9015 21.0498C43.4031 21.7268 43.3193 22.6121 43.6829 23.3606C43.9429 23.8963 44.1741 24.4545 44.3701 25.0203C44.6421 25.8061 45.3276 26.3726 46.1589 26.4991L48.8668 26.9103C49.291 26.9746 49.5988 27.3328 49.5988 27.7614V32.2386C49.5988 32.6672 49.291 33.0254 48.8671 33.0897L46.1585 33.5009C45.3276 33.6274 44.6421 34.1939 44.3701 34.9797C44.1741 35.5455 43.9429 36.1037 43.6829 36.6394C43.3193 37.3879 43.4031 38.2732 43.9015 38.9505L45.526 41.1559C45.7802 41.5014 45.7446 41.9721 45.4415 42.2756L42.2756 45.4412C41.9721 45.7443 41.5004 45.7798 41.1563 45.526L38.9502 43.9015C38.2732 43.4034 37.3879 43.3189 36.6394 43.6829C36.1037 43.9429 35.5455 44.1741 34.9797 44.3701C34.1939 44.6421 33.6274 45.3276 33.5009 46.1589L33.0897 48.8668C33.0254 49.291 32.6672 49.5988 32.2386 49.5988H27.7614C27.3328 49.5988 26.9746 49.291 26.9103 48.8671L26.4991 46.1585C26.3726 45.3276 25.8061 44.6421 25.0203 44.3701C24.4545 44.1741 23.8963 43.9429 23.3606 43.6829C23.0517 43.5327 22.7195 43.4592 22.3884 43.4592C21.917 43.4592 21.4473 43.6087 21.0495 43.9015L18.8441 45.526C18.4979 45.7798 18.0272 45.7443 17.7244 45.4415L14.5588 42.2756C14.2554 41.9721 14.2198 41.5014 14.474 41.1563L16.0985 38.9502C16.5969 38.2732 16.6807 37.3879 16.3171 36.6394C16.0571 36.1037 15.8259 35.5455 15.6299 34.9797C15.3579 34.1939 14.6724 33.6274 13.8411 33.5009L11.1332 33.0897C10.709 33.0254 10.4012 32.6672 10.4012 32.2386V27.7614C10.4012 27.3328 10.709 26.9746 11.1329 26.9103L13.8415 26.4991C14.6724 26.3726 15.3579 25.8061 15.6299 25.0203C15.8259 24.4545 16.0571 23.8963 16.3171 23.3606C16.6807 22.6121 16.5969 21.7268 16.0985 21.0495Z" fill="#F26A21"/>
<path d="M29.2884 38.6305V42.3009C29.2884 42.687 29.6058 43 29.9972 43C30.3887 43 30.706 42.687 30.706 42.3009V38.6308C36.9954 38.269 42 33.1079 42 26.8159C42 26.4674 41.7397 26.1721 41.3898 26.1236C38.9163 25.7805 36.7837 26.0028 35.0005 26.7569C34.9099 24.8386 34.2181 21.038 30.434 18.1464C30.1786 17.9512 29.8214 17.9512 29.566 18.1464C25.7818 21.038 25.09 24.8388 24.9995 26.757C23.216 26.0028 21.0831 25.7805 18.6102 26.1236C18.2603 26.1721 18 26.4674 18 26.8159C18 33.1065 23.0012 38.2662 29.2884 38.6305ZM40.564 27.4334C40.2529 32.6713 36.0066 36.8838 30.706 37.2299V36.3042C30.7099 36.2755 30.7116 36.2462 30.7116 36.2165C30.7116 36.2011 30.7112 36.1602 30.7095 36.096C30.74 35.3597 31.0293 31.4599 33.7313 29.15C35.3988 27.7245 37.6949 27.147 40.564 27.4334ZM30 19.6006C33.496 22.556 33.6343 26.3814 33.5933 27.4978C33.316 27.6828 33.0488 27.8827 32.7941 28.101C31.3488 29.3401 30.4994 30.9205 30 32.3576C29.5006 30.9205 28.6512 29.3401 27.2059 28.101C26.9513 27.8827 26.6841 27.683 26.4069 27.498C26.3658 26.3795 26.505 22.5551 30 19.6006ZM26.2687 29.15C28.9707 31.4599 29.26 35.3597 29.2905 36.096C29.2888 36.1602 29.2884 36.2011 29.2884 36.2165V37.2296C23.9903 36.8811 19.7471 32.6696 19.436 27.433C22.3024 27.149 24.6008 27.7245 26.2687 29.15Z" fill="#F26A21"/>
</svg>
