<svg width="60" height="60" viewBox="0 0 60 60" fill="none" xmlns="http://www.w3.org/2000/svg">
<path fill-rule="evenodd" clip-rule="evenodd" d="M51.3663 45.8738L48.5692 45.8759C48.5506 45.8759 48.5381 45.8697 48.5195 45.8563C48.5071 45.8427 48.5009 45.8283 48.5009 45.8119L48.4886 32.9431C48.4886 32.9265 48.5009 32.912 48.5134 32.8987C48.5258 32.8853 48.5383 32.879 48.5569 32.879L51.3539 32.8768C51.3725 32.8768 51.385 32.8831 51.3975 32.8965C51.4099 32.9089 51.4161 32.9245 51.4161 32.9409L51.4285 45.8087C51.4285 45.8427 51.3974 45.8738 51.3663 45.8738ZM40.2277 43.5946L34.217 38.1967C33.9187 37.93 33.4648 37.9319 33.1727 38.2018C32.3087 38.992 31.6064 39.6524 30.9537 40.2805C29.723 41.4758 28.2063 41.0295 26.0371 40.2029C27.4418 38.8083 28.8217 37.5055 30.5 35.9567C31.0283 35.5517 31.5007 35.1591 31.9545 34.7799C33.3281 33.6239 34.3227 32.7892 35.6965 32.6609C36.604 32.5774 37.6731 32.8088 38.9785 33.3719C39.5379 33.6125 40.0786 33.7252 40.6879 33.7252H40.6941L46.9409 33.7198L46.9534 45.0381L41.4897 45.0431C41.1973 44.5721 40.7809 44.0884 40.2277 43.5946ZM40.4266 46.655C40.4577 46.441 40.3955 45.8284 39.1897 44.7477L33.7011 39.8195C33.0795 40.3972 32.5388 40.9057 32.0353 41.3942C29.9965 43.3706 27.4791 42.4108 25.459 41.6402C25.0861 41.4976 24.7318 41.3644 24.3962 41.2496C24.1413 41.1639 23.9486 40.9553 23.8865 40.696C23.8244 40.4367 23.8989 40.1638 24.0855 39.9727C25.6333 38.3911 27.0939 37.0034 28.8467 35.3751C25.6519 32.6435 22.9231 32.0504 19.8525 33.3771C19.3739 33.5847 18.9139 33.6941 18.4167 33.7231C18.3981 33.724 18.3856 33.7252 18.367 33.724L13.0587 33.7198L13.0525 45.0381L18.6777 45.0431C18.8083 44.8012 18.9823 44.5813 19.1873 44.3921L20.9464 42.7982C21.9347 41.8993 23.4452 41.9663 24.3837 42.952C24.3899 42.9562 24.3962 42.9613 24.3962 42.9653C24.8188 43.4282 25.0426 44.0233 25.0301 44.6485C25.6269 44.6959 26.2049 44.9573 26.6401 45.4305C27.0627 45.8841 27.299 46.5142 27.2741 47.1601C27.2741 47.2096 27.2679 47.2591 27.2617 47.3077C27.79 47.3905 28.2935 47.6413 28.6913 48.0617C28.6976 48.0659 28.7038 48.0712 28.7038 48.0754C29.1452 48.5578 29.3689 49.1829 29.3378 49.8367C29.3378 49.8502 29.3315 49.8637 29.3315 49.8782C29.891 49.9493 30.4255 50.2087 30.8295 50.6561C31.5443 51.4424 31.6438 52.5694 31.1714 53.4559C31.5629 53.5882 31.9421 53.5479 32.1783 53.3816C32.5947 53.0871 32.4083 52.4608 32.2591 52.1139C32.1224 51.7832 32.2217 51.4 32.5139 51.1862C32.7999 50.9722 33.1977 50.9846 33.4712 51.2151C34.0617 51.7131 34.6397 51.8835 35.0189 51.6718C35.3732 51.4735 35.5411 50.9536 35.4478 50.3474C35.4044 50.0714 35.5162 49.7945 35.7338 49.6221C35.9513 49.4485 36.2434 49.4069 36.5045 49.5123C37.151 49.7758 37.6917 49.7107 37.9777 49.3348C38.189 49.0516 38.2139 48.661 38.0336 48.4255C37.7787 48.1011 37.8285 47.6361 38.1331 47.3666C38.4003 47.1362 38.7795 47.1165 39.0655 47.2983C39.2582 47.3199 39.7865 47.2558 40.1594 47.0048C40.4017 46.8399 40.4204 46.7003 40.4266 46.655ZM27.4418 53.7299C27.1124 53.3641 27.1372 52.798 27.5039 52.4663L28.4176 51.6367C28.7843 51.305 29.35 51.3329 29.6857 51.6986C30.0151 52.0633 29.984 52.6305 29.6235 52.9622L28.7098 53.7909C28.3431 54.1223 27.7774 54.0946 27.4418 53.7299ZM26.3541 51.4207C25.9874 51.7523 25.4404 51.7225 25.0798 51.3527C24.7565 50.9869 24.7876 50.425 25.1482 50.0953L26.2919 49.0561C26.6587 48.7234 27.2056 48.7533 27.5662 49.124C27.7216 49.2988 27.7963 49.5249 27.79 49.7615C27.7775 50.0012 27.6719 50.2211 27.4978 50.3815L27.3797 50.4878V50.4899L26.4661 51.3184V51.3194L26.3541 51.4207ZM23.1032 49.5022C22.867 49.4908 22.6432 49.3877 22.4878 49.2118C22.3262 49.0363 22.2454 48.8068 22.2579 48.5672C22.2703 48.3275 22.3697 48.1076 22.5439 47.9482L24.2345 46.4181C24.4024 46.2632 24.62 46.1866 24.8313 46.1866C25.0737 46.1866 25.3223 46.285 25.4963 46.4791C25.5026 46.4845 25.5026 46.4885 25.5087 46.4936C25.6516 46.6466 25.7325 46.8687 25.7263 47.1043C25.7138 47.3553 25.6144 47.5816 25.4341 47.7439L25.2538 47.908V47.9092L23.7496 49.2728C23.5756 49.4319 23.3456 49.5147 23.1032 49.5022ZM19.9394 46.1591C19.9517 45.9193 20.0575 45.6993 20.2315 45.5403L21.9905 43.9461C22.351 43.6135 22.8981 43.6433 23.2586 44.0143C23.414 44.1889 23.4947 44.4152 23.4824 44.6516C23.4699 44.8916 23.3643 45.1115 23.1902 45.2715L21.5057 46.8007C21.4809 46.8223 21.4561 46.8442 21.4373 46.8668V46.8649C21.0706 47.1965 20.5049 47.1686 20.1693 46.8039C20.0139 46.628 19.9269 46.3988 19.9394 46.1591ZM11.4983 45.8119C11.4983 45.8449 11.4673 45.8759 11.4362 45.8759L8.6391 45.8738C8.60802 45.8738 8.57694 45.8427 8.57694 45.8087L8.58318 32.9409C8.58318 32.9069 8.61426 32.8768 8.65158 32.8768L11.4487 32.879C11.4673 32.879 11.4797 32.8852 11.4922 32.8987C11.5046 32.912 11.5108 32.9266 11.5108 32.9431L11.4983 45.8119ZM28.1815 21.8139C28.5357 21.7685 28.8838 21.6993 29.2257 21.6083V22.9743C28.9211 22.5568 28.5668 22.1684 28.1815 21.8139ZM23.7682 25.8163C25.4155 26.7668 27.3361 26.9734 29.1262 26.4123C28.7159 24.5817 27.5785 23.0216 25.9313 22.0721C25.5521 21.8531 25.1606 21.6754 24.7565 21.536C24.6633 21.508 24.5701 21.478 24.4768 21.4472C23.2088 21.0679 21.86 21.073 20.5733 21.4761C20.9836 23.3069 22.1273 24.8669 23.7682 25.8163ZM20.5733 15.0892C22.3635 14.5281 24.2841 14.7359 25.9313 15.6853C27.5786 16.6346 28.7159 18.1948 29.1262 20.0265C27.8396 20.4293 26.4845 20.4334 25.2103 20.0513C25.1233 20.0215 25.0363 19.9935 24.943 19.9666C24.5452 19.8273 24.1474 19.6496 23.7682 19.4305C22.1273 18.4809 20.9836 16.9209 20.5733 15.0892ZM30.0027 6.21223C28.4239 7.63603 27.5288 9.63631 27.5288 11.7892C27.5288 13.9402 28.4239 15.9415 30.0027 17.3653C31.5815 15.9415 32.4766 13.9402 32.4766 11.7883C32.4766 9.63631 31.5815 7.63603 30.0027 6.21223ZM39.4321 15.0892C39.0218 16.9209 37.8781 18.4809 36.2309 19.4305C35.858 19.6495 35.4602 19.826 35.0561 19.9666C34.9691 19.9936 34.8821 20.0225 34.7889 20.0523C33.5209 20.4335 32.1658 20.4295 30.8792 20.0265C31.2895 18.1948 32.4269 16.6346 34.0741 15.6853C35.7149 14.7359 37.6357 14.528 39.4321 15.0892ZM30.7797 22.9742V21.6082C31.1216 21.6992 31.4697 21.7684 31.8177 21.8138C31.4324 22.1684 31.0843 22.5568 30.7797 22.9742ZM36.2309 25.8163C37.8782 24.8668 39.0218 23.3069 39.4321 21.4761C38.1454 21.073 36.7904 21.0689 35.5223 21.4472C35.4291 21.478 35.3421 21.5081 35.2489 21.536C34.8448 21.6754 34.4533 21.8531 34.0741 22.0721C32.4269 23.0216 31.2893 24.5817 30.8792 26.4123C32.6692 26.9745 34.5899 26.7669 36.2309 25.8163ZM52.97 32.9398C52.9637 32.5091 52.796 32.1041 52.4913 31.7992C52.1867 31.4944 51.7827 31.3271 51.3538 31.3271L48.5567 31.3291C48.1216 31.3291 47.7176 31.4975 47.413 31.8033C47.3012 31.9141 47.2141 32.0369 47.1395 32.1692L40.6937 32.1753C40.6875 32.1753 40.6875 32.1753 40.6875 32.1753C40.2897 32.1753 39.9602 32.107 39.5935 31.949C38.0457 31.2806 36.7217 31.0088 35.5532 31.1183C33.7009 31.2909 32.4267 32.3571 30.9535 33.5918C30.8975 33.6412 30.8354 33.692 30.7795 33.7415V27.9951C31.4695 28.1791 32.1781 28.2719 32.8867 28.2719C34.3101 28.2719 35.7273 27.898 37.0077 27.1585C39.2516 25.8628 40.7309 23.6445 41.0728 21.0711C41.1164 20.7239 40.9237 20.3881 40.6004 20.2539C39.9104 19.9688 39.2018 19.7806 38.4871 19.6867C39.898 18.3901 40.8181 16.64 41.0728 14.6841C41.1164 14.3369 40.9237 14.0023 40.6004 13.8677C38.3565 12.9371 35.8765 13.0301 33.7257 14.1106C33.9247 13.3637 34.024 12.5848 34.024 11.7881C34.024 8.94499 32.7311 6.32071 30.4748 4.58935C30.1951 4.37647 29.8097 4.37647 29.53 4.58935C27.2737 6.32083 25.9808 8.94499 25.9808 11.7892C25.9808 12.5849 26.0803 13.3639 26.2729 14.1107C24.1285 13.0303 21.6483 12.9373 19.4044 13.8679C19.0811 14.0024 18.8823 14.3369 18.932 14.6842C19.1869 16.64 20.1068 18.3902 21.5177 19.6868C20.7967 19.7807 20.0881 19.9689 19.4044 20.254C19.0811 20.3883 18.8823 20.7241 18.932 21.0712C19.2676 23.6446 20.747 25.8629 22.9909 27.1586C24.2775 27.8981 25.6947 28.2721 27.1181 28.2721C27.8267 28.2721 28.5291 28.1793 29.2252 27.9952V33.6797C27.9261 32.6548 26.7016 31.9729 25.4584 31.57C23.4073 30.9067 21.3747 31.0317 19.2364 31.9544C18.9319 32.0865 18.6584 32.1547 18.3476 32.1743L12.8653 32.1692C12.7907 32.0368 12.6975 31.9139 12.5918 31.8033C12.281 31.4977 11.8769 31.3291 11.4481 31.3291L8.65098 31.3271C7.76214 31.3271 7.03494 32.0503 7.03494 32.9398L7.02246 45.8078C7.02246 46.6984 7.74354 47.4226 8.63862 47.4236L11.4357 47.4255C12.0448 47.4255 12.5732 47.0867 12.8529 46.5875L18.4222 46.5929C18.4969 47.0567 18.7019 47.4896 19.0251 47.845C19.4602 48.3243 20.057 48.6075 20.7034 48.6405C20.7097 49.2398 20.9335 49.8079 21.3375 50.2532C21.8161 50.7844 22.4812 51.0539 23.1463 51.0539C23.2084 51.0539 23.2643 51.0499 23.3265 51.0457C23.3824 51.5344 23.5875 52.0096 23.9419 52.4013C23.9419 52.4054 23.9481 52.4096 23.9542 52.4146C24.4267 52.9105 25.042 53.1729 25.6635 53.1976C25.6821 53.7607 25.8873 54.3218 26.2976 54.7712C26.7327 55.2526 27.3356 55.5355 27.9883 55.5676C28.0317 55.5698 28.069 55.5707 28.1126 55.5707C28.7217 55.5707 29.2997 55.3485 29.7473 54.9375L30.0705 54.6471C30.5615 54.9385 31.1085 55.0882 31.6307 55.0882C32.1529 55.0882 32.6501 54.9435 33.0728 54.6471C33.4892 54.3517 33.8498 53.8641 33.9491 53.2112C34.6018 53.3877 35.2297 53.3299 35.7766 53.023C36.4293 52.6564 36.8519 52.0045 36.9763 51.212C38.0081 51.2977 38.7789 50.8359 39.2078 50.2718C39.5434 49.8305 39.7113 49.3089 39.7051 48.7984C39.9785 48.7508 40.1836 48.6857 40.2397 48.6682C41.2217 48.3439 41.8496 47.6857 41.9677 46.8645C41.98 46.7746 41.98 46.6837 41.98 46.5915L47.1515 46.5874C47.2262 46.7198 47.3194 46.8425 47.425 46.9533C47.7296 47.257 48.1336 47.4254 48.5687 47.4254L51.3658 47.4235C52.2547 47.4225 52.9757 46.697 52.9757 45.8077L52.97 32.9398Z" fill="#F26A21"/>
</svg>
