<svg width="16" height="16" viewBox="0 0 16 16" fill="none" xmlns="http://www.w3.org/2000/svg">
<path d="M6.78398 0.800049C6.78398 0.800049 3.13598 3.04005 4.97598 6.86405C4.97598 6.86405 8.81598 5.90405 6.78398 0.800049ZM1.66398 4.51205C1.66398 4.51205 -1.10402 8.20805 2.25598 11.296C2.25598 11.296 5.72798 8.81605 1.66398 4.51205ZM12.704 8.59205C12.704 8.59205 10.032 5.76005 6.79998 7.44005C7.50398 6.67205 8.31998 5.95205 9.21598 5.34405C9.85598 6.03205 12 7.76005 15.408 4.65605C15.408 4.65605 12.432 3.10405 9.02398 4.70405C6.79998 5.84005 3.64798 8.80005 1.69598 15.024C1.69598 15.024 1.88798 15.408 2.46398 15.024C2.46398 15.024 2.78398 13.968 3.47198 12.512C4.11198 13.408 6.07998 15.296 10.016 12.704C10.016 12.704 7.23198 9.74405 3.90398 11.664C4.46398 10.592 5.18398 9.40805 6.09598 8.27205C6.63998 9.08805 8.60798 11.296 12.704 8.59205Z" fill="#005948"/>
</svg>
