<svg width="46" height="46" viewBox="0 0 46 46" fill="none" xmlns="http://www.w3.org/2000/svg">
<path d="M8.84021 36.3633C9.24444 32.3672 11.3606 28.5233 14.9601 24.8896C18.7812 21.0316 24.2567 17.4213 31.122 14.1217C32.364 13.5246 33.2452 14.4983 33.3539 15.5474C34.635 22.3399 28.3158 26.2903 21.2739 30.6906C17.9173 32.7888 14.4048 34.9833 11.372 37.6629C10.3289 38.5843 8.70058 37.7438 8.84021 36.3633ZM30.6341 20.5714C31.6598 19.5456 30.1011 17.9874 29.0753 19.0132L27.6627 20.4258C26.6369 21.4516 28.1957 23.0098 29.2215 21.984L30.6341 20.5714ZM17.048 31.6783C18.0738 30.6525 16.5156 29.0938 15.4893 30.1201L14.0772 31.5321C13.0514 32.5579 14.6096 34.1167 15.6354 33.0909L17.048 31.6783ZM20.397 24.7511C21.4228 23.7253 19.8645 22.1665 18.8388 23.1929L17.4262 24.6049C16.4004 25.6312 17.9586 27.1895 18.9849 26.1637L20.397 24.7511ZM35.5809 15.5148L39.138 10.8608C39.389 10.5353 39.4281 10.1132 39.2781 9.76003L37.8938 6.42627C37.5705 5.64934 36.517 5.50482 35.9982 6.19482L31.737 11.7697C31.2138 11.7773 30.6802 11.8963 30.1663 12.143C23.0826 15.5474 17.4039 19.3017 13.4013 23.3428C9.44438 27.3383 7.1114 31.6229 6.65501 36.1378C6.31056 39.54 10.311 41.5351 12.833 39.3064C15.7245 36.7523 19.1599 34.6057 22.4431 32.5536C30.0516 27.7985 36.8919 23.5232 35.5809 15.5148ZM33.9635 12.4739L36.5964 9.02928L37.0104 10.0273L34.6502 13.115C34.4481 12.871 34.2167 12.6564 33.9635 12.4739Z" fill="#F26A21"/>
</svg>
