<svg width="46" height="46" viewBox="0 0 46 46" fill="none" xmlns="http://www.w3.org/2000/svg">
<path fill-rule="evenodd" clip-rule="evenodd" d="M34.4277 8.53837C35.9605 7.32969 37.2089 5.99593 38.0264 4.46977C38.3588 3.84912 40.4676 4.76102 39.9051 5.61457C38.8024 7.28808 38.0926 9.19707 37.5298 11.1946C36.4958 10.3089 35.4617 9.42369 34.4277 8.53837Z" fill="#F26A21"/>
<path fill-rule="evenodd" clip-rule="evenodd" d="M37.1214 10.8445L34.6724 8.74801L34.7988 8.643C37.7904 5.86926 37.7177 5.55462 35.8957 9.34576C39.3247 5.79085 38.4645 6.86204 37.1214 10.8445Z" fill="#F26A21"/>
<path d="M33.9199 8.37231C34.7764 8.41219 35.7042 8.77845 36.5146 9.37817C38.164 10.5986 39.11 12.5835 38.2666 14.3479L38.2568 14.3694C34.8311 22.5238 29.4797 29.9798 22.8115 36.7864C17.1342 42.582 11.4348 41.9547 8.54688 39.1936C7.0856 37.7964 6.30432 35.8326 6.54297 33.7649C6.78123 31.7016 8.04481 29.4683 10.8027 27.5627C18.6019 22.174 25.791 16.2262 31.7256 9.30005L31.7295 9.29614C32.3066 8.60717 33.0776 8.33318 33.9199 8.37231Z" stroke="#F26A21"/>
<path d="M37.7664 10.6429C38.5689 11.7614 38.8608 13.1065 38.2673 14.348L38.2615 14.3588L38.2576 14.3695C34.8318 22.5241 29.4796 29.9798 22.8113 36.7865C19.0338 40.6426 15.2428 41.6456 12.3074 41.0931C9.84671 40.6298 7.94 39.0708 7.05151 37.0717C9.55604 38.3737 12.1831 38.3193 14.7839 37.349C17.7709 36.2345 20.7339 33.9126 23.5134 31.0629C29.0769 25.3589 34.0488 17.3872 37.1521 12.1322C37.4563 11.617 37.665 11.1213 37.7664 10.6429Z" stroke="#F26A21"/>
<path d="M10.9189 39.3943C23.042 41.0707 36.8822 17.1172 37.3788 13.2776C30.0182 24.0707 23.3628 35.5826 10.9189 39.3943Z" fill="#F26A21"/>
<path fill-rule="evenodd" clip-rule="evenodd" d="M6.81601 37.5874C7.11649 37.287 7.86664 37.5493 8.49124 38.1743C9.11583 38.7989 9.37877 39.5489 9.07804 39.8494C8.77756 40.1498 8.02778 39.8871 7.40306 39.2625C6.77822 38.6378 6.51553 37.8877 6.81601 37.5874Z" fill="#F26A21"/>
</svg>
