<svg width="46" height="46" viewBox="0 0 46 46" fill="none" xmlns="http://www.w3.org/2000/svg">
<g clip-path="url(#clip0_161_672)">
<path d="M38.1086 8.26684C37.9089 7.9541 37.4933 7.86255 37.1807 8.06227C32.7729 10.8778 28.5711 12.0262 22.6778 12.0262C20.4944 12.0262 18.5697 11.8674 16.7936 11.5407C16.4288 11.474 16.0783 11.715 16.0112 12.0799C15.9441 12.4448 16.1855 12.7951 16.5504 12.8623C18.4077 13.2038 20.4119 13.3699 22.6778 13.3699C28.85 13.3699 33.2613 12.1602 37.9041 9.19466C38.2169 8.99503 38.3084 8.57959 38.1086 8.26684Z" fill="#F26A21"/>
<path d="M13.9723 10.8408C12.0098 10.2181 10.1677 9.33524 8.17474 8.06233C7.862 7.86252 7.44656 7.95407 7.24684 8.2669C7.04712 8.57965 7.13867 8.99509 7.45141 9.19481C9.54576 10.5325 11.4886 11.4626 13.5658 12.1217C13.6335 12.1432 13.7018 12.1534 13.7692 12.1534C14.0542 12.1534 14.3187 11.9706 14.4095 11.6846C14.5217 11.3308 14.326 10.9531 13.9723 10.8408Z" fill="#F26A21"/>
<path d="M41.2253 20.3873C40.7275 20.3795 40.3123 21.1192 40.298 22.0394C40.2872 22.7367 40.7922 23.5555 41.0373 23.9113C41.1011 24.0037 41.2368 24.0059 41.3034 23.9154C41.5596 23.5675 42.0898 22.7648 42.1006 22.0674C42.115 21.1473 41.7231 20.395 41.2253 20.3873Z" fill="#F26A21"/>
<path d="M42.5508 16.5547C43.9928 15.0665 45.0645 13.3805 45.5995 11.7404C46.2682 9.69021 46.0972 7.82954 45.1051 6.35952C42.7749 2.90683 37.4297 2.82309 32.1064 6.15629C29.5916 7.73099 26.6974 8.46447 22.998 8.46447C19.2987 8.46447 16.4045 7.73099 13.8897 6.15629C8.56663 2.823 3.22137 2.90656 0.891007 6.35943C-0.226919 8.01588 -0.29511 10.2121 0.699101 12.5436C1.62045 14.7044 3.36297 16.7943 5.60565 18.4286C10.1778 21.7605 14.5256 23.877 21.852 24.0732C21.8718 24.3392 21.9033 24.6037 21.9469 24.866C18.3956 25.4484 15.4801 28.1838 14.7608 31.798C14.6884 32.1618 14.9247 32.5156 15.2886 32.5881C15.6522 32.6607 16.0063 32.4243 16.0787 32.0602C16.767 28.6025 19.8298 26.0929 23.3615 26.0929C27.456 26.0929 30.7872 29.4241 30.7872 33.5187C30.7872 37.6132 27.4561 40.9444 23.3615 40.9444C19.7704 40.9444 16.698 38.3847 16.056 34.8579C15.9895 34.4927 15.6397 34.251 15.2746 34.3172C14.9095 34.3837 14.6675 34.7335 14.734 35.0986C15.4923 39.2645 19.1208 42.2882 23.3615 42.2882C28.197 42.2882 32.131 38.3541 32.131 33.5187C32.131 33.0258 32.0895 32.5424 32.0109 32.0715C32.6426 31.969 33.2565 31.7974 33.8443 31.563C34.8793 31.9765 35.9736 32.1863 37.097 32.1863C38.3005 32.1863 39.4669 31.9467 40.5638 31.4742C40.9046 31.3274 41.0619 30.9321 40.9151 30.5913C40.7683 30.2505 40.3732 30.0931 40.0322 30.24C39.1042 30.6397 38.1167 30.8424 37.0971 30.8424C36.5619 30.8424 36.0354 30.7843 35.5208 30.673C36.0588 30.3071 36.5599 29.8803 37.0122 29.3952C38.53 27.767 39.3659 25.6438 39.3659 23.4166C39.3659 20.4025 37.8372 17.7389 35.5146 16.1597C36.0304 16.0477 36.5591 15.9909 37.0971 15.9909C41.1916 15.9909 44.5228 19.3221 44.5228 23.4166C44.5228 25.3692 43.771 27.2131 42.406 28.6087C42.1465 28.8739 42.1512 29.2993 42.4165 29.5589C42.5472 29.6867 42.7168 29.7504 42.8862 29.7504C43.0607 29.7504 43.235 29.6829 43.3666 29.5484C44.9789 27.9002 45.8666 25.7226 45.8666 23.4166C45.8665 20.6411 44.5699 18.1627 42.5508 16.5547ZM38.022 23.4169C38.022 27.1029 35.2791 30.2297 31.6863 30.7609C30.5277 27.2724 27.2338 24.7492 23.3615 24.7492C23.3378 24.7492 23.3144 24.7505 23.2908 24.7507C23.2113 24.3125 23.1705 23.8658 23.1705 23.4168C23.1705 19.3223 26.5017 15.991 30.5963 15.991C34.6909 15.991 38.022 19.3223 38.022 23.4169ZM30.5963 14.6473C27.9626 14.6473 25.5967 15.8145 23.9878 17.6585C23.6647 17.6663 23.3332 17.6703 22.998 17.6703C16.0604 17.6703 12.2509 16.0317 8.01508 13.2015C7.05824 12.5621 6.21272 11.8329 5.50224 11.034C5.25562 10.7568 4.83092 10.7319 4.55367 10.9785C4.27641 11.2251 4.25152 11.6498 4.49814 11.927C5.28455 12.8112 6.21667 13.6159 7.26848 14.3187C11.6068 17.2174 15.7513 19.014 22.998 19.014C23.0036 19.014 23.0091 19.0139 23.0147 19.0139C22.3688 20.1219 21.9585 21.3833 21.8536 22.7291C14.8923 22.5349 10.7522 20.5162 6.39708 17.3425C4.34748 15.8489 2.7629 13.9573 1.93526 12.0164C1.12604 10.1188 1.15083 8.37669 2.00498 7.11115C3.9076 4.29213 8.50149 4.36768 13.1766 7.29506C15.9147 9.00955 19.0355 9.80817 22.9981 9.80817C26.9608 9.80817 30.0817 9.00964 32.8197 7.29506C37.4948 4.36768 42.0887 4.29204 43.9913 7.11115C45.4664 9.29687 44.4051 12.8152 41.4195 15.7889C40.4281 15.2249 39.3167 14.8489 38.1338 14.7089C38.3285 14.5832 38.5259 14.4535 38.7276 14.3188C39.7793 13.616 40.7115 12.8114 41.498 11.9271C41.7446 11.6499 41.7198 11.2251 41.4425 10.9785C41.1653 10.7318 40.7404 10.7568 40.494 11.0339C39.7833 11.8329 38.9379 12.5621 37.9809 13.2014C37.1503 13.7564 36.3894 14.2274 35.6547 14.6412C35.5995 14.6723 35.4601 14.7479 35.3097 14.829C34.8103 14.9324 34.321 15.0802 33.8441 15.271C32.8392 14.869 31.7432 14.6473 30.5963 14.6473Z" fill="#F26A21"/>
<path d="M30.8124 27.1222C31.3102 27.1222 31.7139 26.3762 31.7139 25.4559C31.7139 24.7585 31.1962 23.9476 30.9454 23.5957C30.8802 23.5042 30.7445 23.5042 30.6793 23.5957C30.4286 23.9476 29.9109 24.7585 29.9109 25.4559C29.9109 26.3763 30.3146 27.1222 30.8124 27.1222Z" fill="#F26A21"/>
<path d="M29.9561 22.0514C29.6042 21.8006 28.7934 21.283 28.096 21.283C27.1757 21.283 26.4297 21.6865 26.4297 22.1845C26.4297 22.6823 27.1757 23.0859 28.096 23.0859C28.7934 23.0859 29.6043 22.5683 29.9561 22.3175C30.0476 22.2523 30.0476 22.1166 29.9561 22.0514Z" fill="#F26A21"/>
<path d="M31.8471 21.8141C32.0978 21.4622 32.6155 20.6514 32.6155 19.9539C32.6155 19.0337 32.2119 18.2876 31.714 18.2876C31.2161 18.2876 30.8125 19.0337 30.8125 19.9539C30.8125 20.6513 31.3302 21.4622 31.5809 21.8141C31.6462 21.9056 31.7818 21.9056 31.8471 21.8141Z" fill="#F26A21"/>
<path d="M22.819 28.3459C22.3211 28.3459 21.9175 29.092 21.9175 30.0123C21.9175 30.7096 22.4352 31.5206 22.6859 31.8725C22.7511 31.964 22.8868 31.964 22.952 31.8725C23.2028 31.5206 23.7205 30.7097 23.7205 30.0123C23.7204 29.0919 23.3168 28.3459 22.819 28.3459Z" fill="#F26A21"/>
<path d="M21.8175 34.026C21.746 33.5999 21.5386 32.6605 21.0455 32.1673C20.3947 31.5166 19.5818 31.2744 19.2297 31.6265C18.8777 31.9785 19.1198 32.7915 19.7706 33.4422C20.2637 33.9353 21.2031 34.1427 21.6293 34.2141C21.7401 34.2327 21.8361 34.1368 21.8175 34.026Z" fill="#F26A21"/>
<path d="M23.3639 35.1687C23.4354 35.5949 23.6428 36.5343 24.1358 37.0274C24.7866 37.6782 25.5995 37.9203 25.9516 37.5683C26.3036 37.2163 26.0615 36.4033 25.4107 35.7525C24.9176 35.2594 23.9782 35.052 23.552 34.9806C23.4412 34.962 23.3453 35.0579 23.3639 35.1687Z" fill="#F26A21"/>
<path d="M27.578 33.4084C27.6705 33.3446 27.6727 33.209 27.5822 33.1424C27.2342 32.8861 26.4315 32.356 25.7342 32.3451C24.814 32.3307 24.0617 32.7227 24.054 33.2205C24.0463 33.7184 24.786 34.1335 25.7061 34.1478C26.4034 34.1587 27.2224 33.6537 27.578 33.4084Z" fill="#F26A21"/>
</g>
<defs>
<clipPath id="clip0_161_672">
<rect width="46" height="46" fill="white"/>
</clipPath>
</defs>
</svg>
