<svg width="90" height="98" viewBox="0 0 90 98" fill="none" xmlns="http://www.w3.org/2000/svg">
<path d="M0 0H90V98H0V0Z" fill="#F26A21"/>
<path fill-rule="evenodd" clip-rule="evenodd" d="M52.1552 52.5728H47.6571V37.0706H52.1552C56.559 37.0706 60.0738 40.5004 60.0738 44.7988C60.0738 49.0973 56.559 52.5721 52.1552 52.5721M24.6527 41.3698H19.3585V34.4645H24.6527C26.6202 34.4645 28.1668 35.9738 28.1668 37.8943C28.1668 39.8147 26.6208 41.3698 24.6527 41.3698ZM52.0616 27.5593H47.6571V27.5142H37.9109V31.637C39.049 33.478 39.7019 35.6367 39.7019 37.94C39.7019 40.2433 39.0674 42.3515 37.9109 44.2101V55.1776L33.4142 46.3997C36.1315 44.525 37.9123 41.4613 37.9123 37.94L37.9109 37.8115V37.8505C37.8628 32.1746 33.1963 27.5593 27.3701 27.5135V27.5586H9.61169V62.0835H19.3579V48.3194H23.8092L30.8373 62.0835H52.0616C61.8546 62.0835 69.7731 54.3553 69.7731 44.7982C69.7731 35.241 61.8546 27.5586 52.0616 27.5586V27.5593Z" fill="white"/>
<path d="M71.5734 65.2508V70.8444H72.5775V68.5271H75.7351V70.8444H76.7392V65.2508H75.7351V67.6799H72.5775V65.2508H71.5734ZM69.9563 66.7771L70.5434 66.0896C69.9651 65.5541 69.1223 65.2262 68.2795 65.2262C66.518 65.2262 65.1478 66.4492 65.1478 68.0389C65.1478 69.6285 66.5011 70.8832 68.2456 70.8832C69.0884 70.8832 69.9481 70.5236 70.5523 69.9642L69.9563 69.3407C69.5054 69.7488 68.8925 70.0043 68.2965 70.0043C67.1052 70.0043 66.1689 69.1331 66.1689 68.0304C66.1689 66.9278 67.1052 66.0644 68.2965 66.0644C68.9013 66.0644 69.5224 66.336 69.9563 66.7758V66.7771ZM60.0585 65.2508V70.8444H64.4162V69.9971H61.0627V68.4547H63.9734V67.6075H61.0627V66.0974H64.3138V65.2508H60.0585ZM54.4249 65.2508V66.0974H56.3057V70.8437H57.3098V66.0974H59.1988V65.2508H54.4242H54.4249ZM48.3905 65.2508V70.8444H49.3946V66.8334L52.5691 70.8444H53.5563V65.2508H52.5691V69.2696L49.3777 65.2508H48.3905ZM43.3263 68.7425L44.4498 66.2578L45.5733 68.7425H43.3263ZM46.5266 70.8444H47.5985L44.9943 65.2508H43.9643L41.3343 70.8444H42.3812L42.9514 69.5819H45.9557L46.5259 70.8444H46.5266ZM37.5136 65.2508V70.8444H41.0963V69.9894H38.5178V65.2515H37.5136V65.2508ZM34.1181 68.3111H32.7906V66.098H34.1181C35.0375 66.098 35.5562 66.4498 35.5562 67.1852C35.5562 67.9205 35.0368 68.3118 34.1181 68.3118V68.3111ZM34.1608 65.2508H31.7864V70.8444H32.7906V69.1583H34.1608C35.6586 69.1583 36.5183 68.423 36.5183 67.1606C36.5183 65.8982 35.6586 65.2508 34.1608 65.2508ZM25.4625 69.9971H23.9987V66.0974H25.4205C26.5948 66.0974 27.5054 66.9129 27.5054 68.055C27.5054 69.1971 26.6199 69.9965 25.4632 69.9965L25.4625 69.9971ZM25.4367 65.2508H22.9938V70.8444H25.411C27.2152 70.8444 28.517 69.6621 28.517 68.0479C28.517 66.4337 27.2233 65.2515 25.4361 65.2515L25.4367 65.2508ZM17.8456 68.3111V66.098H19.2586C20.178 66.098 20.7055 66.4498 20.7055 67.1852C20.7055 67.9205 20.178 68.3118 19.2586 68.3118H17.8456V68.3111ZM21.7605 70.8444L20.4241 68.9747C21.2161 68.6869 21.6581 68.0557 21.6581 67.1612C21.6581 65.9467 20.7814 65.2515 19.2579 65.2515H16.8408V70.845H17.8449V69.159H19.2579C19.3515 69.159 19.4451 69.159 19.5305 69.1506L20.6194 70.8444H21.7598H21.7605ZM12.7137 69.9971H11.2498V66.0974H12.6716C13.846 66.0974 14.7566 66.9129 14.7566 68.055C14.7566 69.1971 13.8711 69.9965 12.7143 69.9965L12.7137 69.9971ZM12.6879 65.2508H10.245V70.8444H12.6621C14.4664 70.8444 15.7682 69.6621 15.7682 68.0479C15.7682 66.4337 14.4745 65.2515 12.6872 65.2515L12.6879 65.2508Z" fill="white"/>
<path d="M69.7731 38.0917C70.4757 37.4805 71.2026 36.8429 71.9531 36.1805C72.7035 35.5181 73.2705 34.993 73.654 34.6059C74.6654 33.6883 75.3363 32.8933 75.6665 32.2207C75.9967 31.5482 76.1622 30.8299 76.1622 30.0652C76.1622 29.2088 75.9787 28.5316 75.6139 28.0321C75.247 27.5326 74.7139 27.2828 74.014 27.2828C73.5052 27.2828 73.0289 27.4127 72.59 27.6726C72.1511 27.9325 71.9295 28.2105 71.9295 28.506C71.9295 28.9954 72.2037 29.2398 72.7547 29.2398C73.157 29.2398 73.4816 29.3549 73.7295 29.5838C73.9773 29.8134 74.1019 30.1109 74.1019 30.4785C74.1019 30.9369 73.9372 31.3193 73.6069 31.625C73.2767 31.9306 72.8717 32.0834 72.3927 32.0834C71.7966 32.0834 71.3009 31.9178 70.907 31.5866C70.5131 31.2554 70.3158 30.8198 70.3158 30.2792C70.3158 29.6471 70.5394 29.0742 70.9866 28.5592C71.4339 28.0449 71.9372 27.6699 72.4965 27.4356C73.0552 27.2014 73.5509 27.0506 73.9822 26.9846C74.4135 26.9186 74.8738 26.885 75.364 26.885C76.6523 26.885 77.7489 27.1603 78.6544 27.7103C79.5599 28.261 80.012 29.056 80.012 30.0955C80.012 30.7478 79.8015 31.3288 79.3813 31.8384C78.9604 32.348 78.4896 32.7324 77.9677 32.9929C77.4457 33.2528 76.6447 33.584 75.564 33.9866C74.4834 34.3891 73.8845 34.682 73.7669 34.8658V34.927C74.0327 34.9068 74.3394 34.8913 74.6848 34.8812C75.031 34.8711 75.4014 34.8658 75.7953 34.8658H78.3186C78.8406 34.8658 79.2075 34.8045 79.4208 34.6826C79.634 34.5601 79.7904 34.3871 79.8922 34.1629C79.9933 33.9388 80.0784 33.7193 80.1477 33.5052C80.2169 33.2911 80.2785 33.1127 80.3311 32.97H80.5388L79.517 38.1988H69.7738V38.0917H69.7731Z" fill="white"/>
</svg>
