<svg width="46" height="40" viewBox="0 0 46 40" fill="none" xmlns="http://www.w3.org/2000/svg">
<g clip-path="url(#clip0_161_617)">
<path d="M32.5768 16.5318C32.8531 16.5346 33.1211 16.4358 33.3309 16.2536C33.5406 16.0715 33.6778 15.8184 33.717 15.5416C33.8002 14.9227 33.5359 14.0563 31.8182 13.3384C31.6745 13.2716 31.5149 13.248 31.3582 13.2702C31.2016 13.2925 31.0546 13.3597 30.9346 13.4639C30.8146 13.5681 30.7266 13.705 30.6812 13.8582C30.6357 14.0115 30.6346 14.1747 30.678 14.3286C31.1282 16.1605 31.9553 16.5318 32.5768 16.5318ZM32.8361 15.403C32.8299 15.466 32.8001 15.5242 32.7527 15.5657C32.7054 15.6071 32.6442 15.6286 32.5816 15.6258C32.0336 15.6258 31.7155 14.7148 31.6029 14.1999C32.0482 14.4177 32.9095 14.8683 32.8361 15.4228V15.403Z" fill="#F26A21"/>
<path d="M25.021 20.4383C25.2301 20.6279 25.5011 20.7328 25.782 20.7328C26.0628 20.7328 26.3338 20.6279 26.5429 20.4383C27.0078 20.0273 27.3797 19.1807 26.5429 17.5122C26.478 17.3641 26.372 17.2382 26.2378 17.1499C26.1036 17.0615 25.947 17.0145 25.7868 17.0145C25.6267 17.0145 25.4701 17.0615 25.3359 17.1499C25.2016 17.2382 25.0957 17.3641 25.0308 17.5122C24.1842 19.1807 24.561 20.0273 25.021 20.4383ZM25.7844 18.0172C26.0046 18.4776 26.3667 19.3886 25.9508 19.76C25.9289 19.7829 25.9026 19.8011 25.8736 19.8135C25.8446 19.826 25.8135 19.8324 25.782 19.8324C25.7504 19.8324 25.7193 19.826 25.6903 19.8135C25.6613 19.8011 25.635 19.7829 25.6131 19.76C25.2021 19.3886 25.5642 18.4727 25.7844 18.0172Z" fill="#F26A21"/>
<path d="M45.6966 1.18337C45.6771 0.970144 45.6055 0.765164 45.4883 0.586859C45.3711 0.408555 45.2119 0.262516 45.0251 0.161872C44.8383 0.0612275 44.6297 0.0091335 44.418 0.0102722C44.2064 0.0114109 43.9983 0.0657467 43.8126 0.168395L42.9611 0.6338L35.4249 4.70856L33.8981 5.5354C33.8043 5.58692 33.7317 5.67046 33.6932 5.77111C33.6546 5.87176 33.6527 5.98299 33.6877 6.08497C33.7268 7.21382 33.536 10.0459 32.1706 10.5707C31.634 10.7689 31.0577 10.8319 30.4915 10.7543C29.9254 10.6766 29.3864 10.4607 28.9213 10.1251C28.8569 10.0742 28.78 10.0422 28.6988 10.0326C28.6177 10.023 28.5355 10.0361 28.4613 10.0706C27.6032 10.4902 26.7842 10.9874 26.0145 11.5559C25.9466 11.6063 25.894 11.6749 25.8628 11.754C25.2119 13.274 24.6736 13.5611 24.4681 13.6453C24.4194 13.6667 24.367 13.6777 24.3139 13.6777C24.2609 13.6777 24.2084 13.6667 24.1598 13.6453C24.0935 13.5909 24.0134 13.5566 23.9286 13.5465C23.8439 13.5364 23.7581 13.5509 23.6811 13.5882C23.6042 13.6256 23.5393 13.6843 23.4941 13.7575C23.4489 13.8307 23.4252 13.9155 23.4257 14.0018C23.4257 15.5168 22.5351 15.9822 21.7717 16.1258C21.7109 16.1378 21.6482 16.136 21.5881 16.1206C21.5281 16.1051 21.4721 16.0765 21.4243 16.0367C20.9349 15.6753 20.6706 14.4919 20.6021 13.8285C20.6047 13.8005 20.6047 13.7723 20.6021 13.7443C20.5835 13.6783 20.5736 13.61 20.5728 13.5413C20.57 13.4642 20.548 13.3891 20.5087 13.323C20.4694 13.2568 20.4141 13.2019 20.3481 13.1633C20.282 13.1247 20.2074 13.1037 20.1311 13.1023C20.0549 13.1008 19.9795 13.119 19.9121 13.1552L18.7083 13.8087L10.0368 18.4726L9.54744 18.74L8.66659 19.0272L8.57851 19.0668L0.861274 23.6911C0.48932 23.9108 0.211266 24.2624 0.0810574 24.6777C-0.0491516 25.093 -0.0222323 25.5425 0.156593 25.9389C0.76514 27.266 1.48725 28.5367 2.31468 29.7364C4.27212 32.5239 10.6094 40.005 21.9723 40.005C25.4035 39.9675 28.8055 39.3621 32.0434 38.2127C38.7036 35.9401 43.0443 29.7661 44.9577 19.8936C46.46 12.0758 46 4.1986 45.6966 1.18337ZM19.7604 14.2444C19.8632 14.8781 20.1519 16.1852 20.886 16.7497C21.0317 16.8651 21.1999 16.9481 21.3795 16.9933C21.5591 17.0385 21.7461 17.0449 21.9283 17.0121C22.538 16.932 23.1028 16.645 23.5304 16.198C23.958 15.7511 24.223 15.1705 24.2821 14.5514C24.4125 14.556 24.5427 14.5409 24.6687 14.5068C25.393 14.3187 26.0389 13.5166 26.5968 12.1847C27.2291 11.7394 27.8932 11.3422 28.5836 10.9965C29.1589 11.37 29.8128 11.6017 30.4927 11.6731C31.1727 11.7445 31.8597 11.6535 32.4985 11.4074C34.5 10.5954 34.593 7.10985 34.5783 6.18399L35.283 5.80276C36.1051 12.5709 35.1998 17.6854 32.66 20.6561C31.9208 21.5229 31.0003 22.2125 29.9652 22.6749C28.9301 23.1373 27.8062 23.361 26.6751 23.3297H26.6457C21.7032 23.3297 19.8632 16.4872 19.413 14.4177L19.7604 14.2444ZM18.5957 14.8732C19.1683 17.3487 21.2334 24.2803 26.6457 24.2803H26.68C27.9365 24.307 29.1834 24.0549 30.3333 23.5417C31.4831 23.0284 32.5078 22.2666 33.3353 21.3096C36.0904 18.0964 37.0545 12.6006 36.1296 5.39677L42.8143 1.77255C44.5026 18.1112 39.6187 33.0735 31.8036 35.2519C23.9885 37.4304 17.8226 32.0387 17.7638 31.9892C12.8898 27.548 11.133 20.8244 10.766 19.1163L18.5957 14.8732ZM44.1013 19.6906C42.2319 29.2463 38.087 35.1876 31.7596 37.3265C28.6209 38.4412 25.323 39.0283 21.9968 39.0643C11.0351 39.0643 4.93276 31.8654 3.04383 29.1621C2.25577 28.022 1.56491 26.8162 0.97872 25.5577C0.887443 25.3644 0.871506 25.1434 0.934087 24.9388C0.996667 24.7342 1.13317 24.5609 1.31638 24.4536L8.97489 19.8639L9.84596 19.5767L9.91936 19.547C10.8198 23.4634 13.1785 29.0284 17.1277 32.6378C20.1808 35.1651 23.9839 36.5825 27.9279 36.663C29.3054 36.6632 30.6766 36.475 32.0043 36.1035C36.0121 34.9846 39.4328 30.7811 41.63 24.2704C43.8272 17.7597 44.5319 9.60025 43.6462 1.27744L44.2383 0.955622C44.2937 0.925034 44.3558 0.908827 44.4189 0.908451C44.482 0.908075 44.5442 0.923543 44.6 0.953468C44.6557 0.983394 44.7033 1.02684 44.7384 1.07993C44.7735 1.13301 44.795 1.19407 44.8011 1.25764C45.08 4.24316 45.5596 12.0164 44.0768 19.6906H44.1013Z" fill="#F26A21"/>
<path d="M29.3616 19.2103C29.4801 19.2496 29.6039 19.2697 29.7286 19.2697C29.9459 19.27 30.1587 19.2071 30.3417 19.0886C30.5247 18.9701 30.6703 18.801 30.7612 18.6013C31.0254 18.0369 31.0401 17.116 29.6112 15.9178C29.4932 15.8069 29.3457 15.7333 29.187 15.706C29.0282 15.6787 28.8651 15.6989 28.7175 15.7641C28.5699 15.8293 28.4443 15.9367 28.3562 16.073C28.2681 16.2094 28.2212 16.3688 28.2214 16.5318C28.099 18.3934 28.7695 19.0073 29.3616 19.2103ZM29.112 16.6803C29.4937 17.012 30.1837 17.7052 29.9488 18.2151C29.9249 18.2738 29.8792 18.3206 29.8216 18.3456C29.764 18.3706 29.699 18.3717 29.6405 18.3488C29.112 18.1755 29.0875 17.1902 29.112 16.6803Z" fill="#F26A21"/>
</g>
<defs>
<clipPath id="clip0_161_617">
<rect width="46" height="40" fill="white"/>
</clipPath>
</defs>
</svg>
