<svg width="60" height="60" viewBox="0 0 60 60" fill="none" xmlns="http://www.w3.org/2000/svg">
<g clip-path="url(#clip0_2619_8900)">
<path d="M34.9987 26.9902C34.0782 27.4976 33.1989 28.1372 32.4391 28.897C30.0271 31.309 30.7163 34.6621 32.4391 36.385C34.1632 38.1078 37.5151 38.797 39.9271 36.385C41.4571 34.855 42.5007 32.8399 42.964 30.9796" stroke="#F26A21" stroke-width="1.75802" stroke-miterlimit="10" stroke-linecap="round" stroke-linejoin="round"/>
<path d="M27.6035 41.2204L37.0576 31.7676" stroke="#F26A21" stroke-width="1.75802" stroke-miterlimit="10" stroke-linecap="round" stroke-linejoin="round"/>
<path d="M14.7782 36.3851C17.1905 38.7975 20.5429 38.1082 22.266 36.3851C23.9891 34.662 24.6784 31.3096 22.266 28.8973C19.1461 25.7774 14.0053 24.6782 12.2821 26.4013C10.5591 28.1244 11.6583 33.2652 14.7782 36.3851Z" stroke="#F26A21" stroke-width="1.75802" stroke-miterlimit="10" stroke-linecap="round" stroke-linejoin="round"/>
<path d="M27.1013 41.2204L17.6484 31.7676" stroke="#F26A21" stroke-width="1.75802" stroke-miterlimit="10" stroke-linecap="round" stroke-linejoin="round"/>
<path d="M31.0009 14.371C29.9708 12.636 28.6056 11.4688 27.3526 11.4688C24.916 11.4688 22.0586 15.8814 22.0586 20.294C22.0586 23.7057 24.916 25.588 27.3526 25.588C29.1373 25.588 31.1474 24.5788 32.0957 22.6984" stroke="#F26A21" stroke-width="1.75802" stroke-miterlimit="10" stroke-linecap="round" stroke-linejoin="round"/>
<path d="M27.3525 41.2215V19.4121" stroke="#F26A21" stroke-width="1.75802" stroke-miterlimit="10" stroke-linecap="round" stroke-linejoin="round"/>
<path d="M43.2363 55.5918H11.4678" stroke="#F26A21" stroke-width="1.75802" stroke-miterlimit="10" stroke-linecap="round" stroke-linejoin="round"/>
<path d="M20.5078 41.4727H42.8546" stroke="#F26A21" stroke-width="1.75802" stroke-miterlimit="10" stroke-linecap="round" stroke-linejoin="round"/>
<path d="M16.4109 41.4727H11.8506" stroke="#F26A21" stroke-width="1.75802" stroke-miterlimit="10" stroke-linecap="round" stroke-linejoin="round"/>
<path d="M0.890626 54.1128C1.02892 55.9271 2.54551 57.3558 4.39494 57.3558H7.952C9.89402 57.3558 11.468 55.7818 11.468 53.8398V41.4574C11.468 39.5166 9.89402 37.9414 7.952 37.9414H4.39494C2.45292 37.9414 0.878906 39.5166 0.878906 41.4574V50.0108" stroke="#F26A21" stroke-width="1.75802" stroke-miterlimit="10" stroke-linecap="round" stroke-linejoin="round"/>
<path d="M46.7524 57.3574H50.3098C52.2517 57.3574 53.8258 55.7833 53.8258 53.8414V41.4594C53.8258 39.5175 52.2517 37.9434 50.3098 37.9434H46.7524C44.8105 37.9434 43.2363 39.5175 43.2363 41.4594V53.8414C43.2363 55.7831 44.8106 57.3574 46.7524 57.3574Z" stroke="#F26A21" stroke-width="1.75802" stroke-miterlimit="10" stroke-linecap="round" stroke-linejoin="round"/>
<path d="M6.17411 45.0025C7.14886 45.0025 7.93905 44.2123 7.93905 43.2376C7.93905 42.2628 7.14886 41.4727 6.17411 41.4727C5.19937 41.4727 4.40918 42.2628 4.40918 43.2376C4.40918 44.2123 5.19937 45.0025 6.17411 45.0025Z" stroke="#F26A21" stroke-width="1.75802" stroke-miterlimit="10" stroke-linecap="round" stroke-linejoin="round"/>
<path d="M6.17411 53.8267C7.14886 53.8267 7.93905 53.0366 7.93905 52.0618C7.93905 51.0871 7.14886 50.2969 6.17411 50.2969C5.19937 50.2969 4.40918 51.0871 4.40918 52.0618C4.40918 53.0366 5.19937 53.8267 6.17411 53.8267Z" stroke="#F26A21" stroke-width="1.75802" stroke-miterlimit="10" stroke-linecap="round" stroke-linejoin="round"/>
<path d="M48.5315 45.0025C49.5063 45.0025 50.2965 44.2123 50.2965 43.2376C50.2965 42.2628 49.5063 41.4727 48.5315 41.4727C47.5568 41.4727 46.7666 42.2628 46.7666 43.2376C46.7666 44.2123 47.5568 45.0025 48.5315 45.0025Z" stroke="#F26A21" stroke-width="1.75802" stroke-miterlimit="10" stroke-linecap="round" stroke-linejoin="round"/>
<path d="M48.5315 53.8267C49.5063 53.8267 50.2965 53.0366 50.2965 52.0618C50.2965 51.0871 49.5063 50.2969 48.5315 50.2969C47.5568 50.2969 46.7666 51.0871 46.7666 52.0618C46.7666 53.0366 47.5568 53.8267 48.5315 53.8267Z" stroke="#F26A21" stroke-width="1.75802" stroke-miterlimit="10" stroke-linecap="round" stroke-linejoin="round"/>
<path d="M55.072 26.6579C57.5766 24.1099 59.1213 20.6173 59.1213 16.7638C59.1213 8.96519 52.7994 2.64453 45.002 2.64453C37.2046 2.64453 30.8828 8.96519 30.8828 16.7638C30.8828 24.5612 37.2046 30.883 45.002 30.883C47.4668 30.883 49.7839 30.2513 51.8009 29.1402" stroke="#F26A21" stroke-width="1.75802" stroke-miterlimit="10" stroke-linecap="round" stroke-linejoin="round"/>
<path d="M48.3308 8.91602L41.8818 24.2824" stroke="#F26A21" stroke-width="1.75802" stroke-miterlimit="10" stroke-linecap="round" stroke-linejoin="round"/>
<path d="M40.6474 14.8218C42.2211 14.8218 43.4969 13.3393 43.4969 11.5105C43.4969 9.68173 42.2211 8.19922 40.6474 8.19922C39.0736 8.19922 37.7979 9.68173 37.7979 11.5105C37.7979 13.3393 39.0736 14.8218 40.6474 14.8218Z" stroke="#F26A21" stroke-width="1.75802" stroke-miterlimit="10" stroke-linecap="round" stroke-linejoin="round"/>
<path d="M49.3564 25.3277C50.9301 25.3277 52.2059 23.8451 52.2059 22.0164C52.2059 20.1876 50.9301 18.7051 49.3564 18.7051C47.7826 18.7051 46.5068 20.1876 46.5068 22.0164C46.5068 23.8451 47.7826 25.3277 49.3564 25.3277Z" stroke="#F26A21" stroke-width="1.75802" stroke-miterlimit="10" stroke-linecap="round" stroke-linejoin="round"/>
<path d="M27.3525 50.0518C28.4156 50.0518 29.2773 49.0875 29.2773 47.8979C29.2773 46.7084 28.4156 45.7441 27.3525 45.7441C26.2895 45.7441 25.4277 46.7084 25.4277 47.8979C25.4277 49.0875 26.2895 50.0518 27.3525 50.0518Z" stroke="#F26A21" stroke-width="1.75802" stroke-miterlimit="10" stroke-linecap="round" stroke-linejoin="round"/>
<path d="M21.6855 46.6094C21.6855 45.7184 20.9632 44.9961 20.0723 44.9961C19.1813 44.9961 18.459 45.7184 18.459 46.6094" stroke="#F26A21" stroke-width="1.75802" stroke-miterlimit="10" stroke-linecap="round" stroke-linejoin="round"/>
<path d="M32.8799 46.6094C32.8799 45.7184 33.6022 44.9961 34.4932 44.9961C35.3841 44.9961 36.1064 45.7184 36.1064 46.6094" stroke="#F26A21" stroke-width="1.75802" stroke-miterlimit="10" stroke-linecap="round" stroke-linejoin="round"/>
</g>
<defs>
<clipPath id="clip0_2619_8900">
<rect width="60" height="60" fill="white"/>
</clipPath>
</defs>
</svg>
