<svg width="60" height="60" viewBox="0 0 60 60" fill="none" xmlns="http://www.w3.org/2000/svg">
<path d="M30.0003 30.0002C30.9299 29.9985 31.8447 29.7664 32.6627 29.3246C33.4807 28.8829 34.1765 28.2453 34.6878 27.4689C35.2321 26.6467 35.5627 25.7016 35.6494 24.7194C35.7362 23.7372 35.5764 22.7488 35.1846 21.8439L30.8628 11.822C30.7907 11.6529 30.6705 11.5087 30.5172 11.4074C30.3638 11.306 30.1841 11.252 30.0003 11.252C29.8164 11.252 29.6367 11.306 29.4833 11.4074C29.33 11.5087 29.2098 11.6529 29.1378 11.822L24.8628 21.8439C24.471 22.7488 24.3112 23.7372 24.398 24.7194C24.4847 25.7016 24.8153 26.6467 25.3596 27.4689C25.8666 28.2387 26.5549 28.8722 27.3641 29.3136C28.1733 29.755 29.0786 29.9908 30.0003 30.0002ZM26.5878 22.5752L30.0003 14.5783L33.4128 22.5752C33.6823 23.1962 33.7926 23.8747 33.7337 24.5492C33.6747 25.2237 33.4484 25.8728 33.0753 26.4377C32.7457 26.9545 32.2912 27.3799 31.7538 27.6747C31.2163 27.9694 30.6132 28.1239 30.0003 28.1239C29.3873 28.1239 28.7842 27.9694 28.2468 27.6747C27.7093 27.3799 27.2548 26.9545 26.9253 26.4377C26.5521 25.8728 26.3258 25.2237 26.2668 24.5492C26.2079 23.8747 26.3182 23.1962 26.5878 22.5752Z" fill="#F26A21"/>
<path d="M18.7503 20.6252C19.6799 20.6235 20.5947 20.3914 21.4127 19.9496C22.2307 19.5079 22.9265 18.8703 23.4378 18.0939C23.9821 17.2717 24.3127 16.3266 24.3994 15.3444C24.4862 14.3622 24.3264 13.3738 23.9346 12.4689L19.6128 2.44703C19.5407 2.27791 19.4205 2.13371 19.2672 2.03235C19.1138 1.93099 18.9341 1.87695 18.7503 1.87695C18.5664 1.87695 18.3867 1.93099 18.2333 2.03235C18.08 2.13371 17.9598 2.27791 17.8878 2.44703L13.6128 12.4689C13.221 13.3738 13.0612 14.3622 13.148 15.3444C13.2347 16.3266 13.5653 17.2717 14.1096 18.0939C14.6166 18.8637 15.3049 19.4972 16.1141 19.9386C16.9233 20.38 17.8286 20.6158 18.7503 20.6252ZM15.3378 13.2002L18.7503 5.20328L22.1628 13.2002C22.4323 13.8212 22.5426 14.4997 22.4837 15.1742C22.4247 15.8487 22.1984 16.4978 21.8253 17.0627C21.4957 17.5795 21.0412 18.0049 20.5038 18.2997C19.9663 18.5944 19.3632 18.7489 18.7503 18.7489C18.1373 18.7489 17.5342 18.5944 16.9968 18.2997C16.4593 18.0049 16.0048 17.5795 15.6753 17.0627C15.3021 16.4978 15.0758 15.8487 15.0169 15.1742C14.9579 14.4997 15.0682 13.8212 15.3378 13.2002Z" fill="#F26A21"/>
<path d="M41.2503 20.6252C42.1799 20.6235 43.0947 20.3914 43.9127 19.9496C44.7307 19.5079 45.4265 18.8703 45.9378 18.0939C46.4821 17.2717 46.8127 16.3266 46.8994 15.3444C46.9862 14.3622 46.8264 13.3738 46.4346 12.4689L42.1128 2.44703C42.0407 2.27791 41.9206 2.13371 41.7672 2.03235C41.6138 1.93099 41.4341 1.87695 41.2503 1.87695C41.0664 1.87695 40.8867 1.93099 40.7333 2.03235C40.58 2.13371 40.4598 2.27791 40.3878 2.44703L36.1128 12.4689C35.721 13.3738 35.5612 14.3622 35.648 15.3444C35.7347 16.3266 36.0653 17.2717 36.6096 18.0939C37.1166 18.8637 37.8049 19.4972 38.6141 19.9386C39.4233 20.38 40.3286 20.6158 41.2503 20.6252ZM37.8378 13.2002L41.2503 5.20328L44.6628 13.2002C44.9323 13.8212 45.0426 14.4997 44.9837 15.1742C44.9247 15.8487 44.6984 16.4978 44.3253 17.0627C43.9957 17.5795 43.5412 18.0049 43.0038 18.2997C42.4663 18.5944 41.8632 18.7489 41.2503 18.7489C40.6373 18.7489 40.0342 18.5944 39.4968 18.2997C38.9593 18.0049 38.5048 17.5795 38.1753 17.0627C37.8021 16.4978 37.5758 15.8487 37.5169 15.1742C37.4579 14.4997 37.5682 13.8212 37.8378 13.2002Z" fill="#F26A21"/>
<path d="M22.5 32.8125H58.125V34.6875H22.5V32.8125Z" fill="#F26A21"/>
<path d="M38.4375 41.25H58.125V43.125H38.4375V41.25Z" fill="#F26A21"/>
<path d="M22.5 51.5625H58.125V53.4375H22.5V51.5625Z" fill="#F26A21"/>
<path d="M11.25 38.4375C11.25 38.6861 11.3488 38.9246 11.5246 39.1004C11.7004 39.2762 11.9389 39.375 12.1875 39.375H15.9375C16.1861 39.375 16.4246 39.2762 16.6004 39.1004C16.7762 38.9246 16.875 38.6861 16.875 38.4375V34.6875H20.625V32.8125H16.875V29.0625C16.875 28.8139 16.7762 28.5754 16.6004 28.3996C16.4246 28.2238 16.1861 28.125 15.9375 28.125H12.1875C11.9389 28.125 11.7004 28.2238 11.5246 28.3996C11.3488 28.5754 11.25 28.8139 11.25 29.0625V32.8125H1.875V34.6875H11.25V38.4375ZM13.125 30H15V37.5H13.125V30Z" fill="#F26A21"/>
<path d="M27.1875 47.8125C27.1875 48.0611 27.2863 48.2996 27.4621 48.4754C27.6379 48.6512 27.8764 48.75 28.125 48.75H31.875C32.1236 48.75 32.3621 48.6512 32.5379 48.4754C32.7137 48.2996 32.8125 48.0611 32.8125 47.8125V44.0625H36.5625V42.1875H32.8125V38.4375C32.8125 38.1889 32.7137 37.9504 32.5379 37.7746C32.3621 37.5988 32.1236 37.5 31.875 37.5H28.125C27.8764 37.5 27.6379 37.5988 27.4621 37.7746C27.2863 37.9504 27.1875 38.1889 27.1875 38.4375V42.1875H1.875V44.0625H27.1875V47.8125ZM29.0625 39.375H30.9375V46.875H29.0625V39.375Z" fill="#F26A21"/>
<path d="M11.25 57.1875C11.25 57.4361 11.3488 57.6746 11.5246 57.8504C11.7004 58.0262 11.9389 58.125 12.1875 58.125H15.9375C16.1861 58.125 16.4246 58.0262 16.6004 57.8504C16.7762 57.6746 16.875 57.4361 16.875 57.1875V53.4375H20.625V51.5625H16.875V47.8125C16.875 47.5639 16.7762 47.3254 16.6004 47.1496C16.4246 46.9738 16.1861 46.875 15.9375 46.875H12.1875C11.9389 46.875 11.7004 46.9738 11.5246 47.1496C11.3488 47.3254 11.25 47.5639 11.25 47.8125V51.5625H1.875V53.4375H11.25V57.1875ZM13.125 48.75H15V56.25H13.125V48.75Z" fill="#F26A21"/>
</svg>
