<svg width="60" height="60" viewBox="0 0 60 60" fill="none" xmlns="http://www.w3.org/2000/svg">
<path d="M49.6875 2.8125H40.1794C39.9721 2.00986 39.5048 1.29851 38.8504 0.789655C38.196 0.280795 37.3915 0.00310664 36.5625 0L23.4375 0C22.6085 0.00310664 21.804 0.280795 21.1496 0.789655C20.4952 1.29851 20.0279 2.00986 19.8206 2.8125H10.3125C9.31855 2.81448 8.36587 3.21021 7.66304 3.91304C6.96021 4.61587 6.56448 5.56855 6.5625 6.5625V56.25C6.56448 57.244 6.96021 58.1966 7.66304 58.8995C8.36587 59.6023 9.31855 59.998 10.3125 60H49.6875C50.6815 59.998 51.6341 59.6023 52.337 58.8995C53.0398 58.1966 53.4355 57.244 53.4375 56.25V6.5625C53.4355 5.56855 53.0398 4.61587 52.337 3.91304C51.6341 3.21021 50.6815 2.81448 49.6875 2.8125ZM8.4375 9.375H19.6875V10.3125C19.6875 10.5611 19.7863 10.7996 19.9621 10.9754C20.1379 11.1512 20.3764 11.25 20.625 11.25H39.375C39.6236 11.25 39.8621 11.1512 40.0379 10.9754C40.2137 10.7996 40.3125 10.5611 40.3125 10.3125V9.375H51.5625V53.4375H8.4375V9.375ZM51.5625 6.5625V7.5H40.3125V4.6875H49.6875C50.1848 4.6875 50.6617 4.88504 51.0133 5.23667C51.365 5.58831 51.5625 6.06522 51.5625 6.5625ZM26.25 1.875H33.75V4.6875H26.25V1.875ZM23.4375 1.875H24.375V5.625C24.375 5.87364 24.4738 6.1121 24.6496 6.28791C24.8254 6.46373 25.0639 6.5625 25.3125 6.5625H34.6875C34.9361 6.5625 35.1746 6.46373 35.3504 6.28791C35.5262 6.1121 35.625 5.87364 35.625 5.625V1.875H36.5625C37.0598 1.875 37.5367 2.07254 37.8883 2.42417C38.24 2.77581 38.4375 3.25272 38.4375 3.75V9.375H21.5625V3.75C21.5625 3.25272 21.76 2.77581 22.1117 2.42417C22.4633 2.07254 22.9402 1.875 23.4375 1.875ZM10.3125 4.6875H19.6875V7.5H8.4375V6.5625C8.4375 6.06522 8.63504 5.58831 8.98668 5.23667C9.33831 4.88504 9.81522 4.6875 10.3125 4.6875ZM49.6875 58.125H10.3125C9.81522 58.125 9.33831 57.9275 8.98668 57.5758C8.63504 57.2242 8.4375 56.7473 8.4375 56.25V55.3125H51.5625V56.25C51.5625 56.7473 51.365 57.2242 51.0133 57.5758C50.6617 57.9275 50.1848 58.125 49.6875 58.125Z" fill="#F26A21"/>
<path d="M48.3139 20.5716C46.0303 19.0884 43.4326 18.1576 40.7268 17.8529C37.1877 17.5519 32.6502 18.7322 29.9999 25.4222C27.3496 18.7313 22.8093 17.5604 19.2749 17.8519C16.5685 18.1568 13.9702 19.0877 11.6858 20.5707C11.5763 20.6455 11.484 20.7426 11.4148 20.8558C11.3456 20.9689 11.3012 21.0954 11.2846 21.2269C11.0283 23.8546 11.5019 26.502 12.6533 28.8779C14.3305 32.0429 18.2118 35.2585 27.1846 33.0844V37.5254C23.5598 37.719 20.122 39.195 17.4852 41.6897C16.2177 40.0883 15.2681 38.2592 14.6877 36.301C14.6568 36.1791 14.6016 36.0647 14.5256 35.9645C14.4495 35.8644 14.3541 35.7806 14.245 35.7181C14.1359 35.6556 14.0153 35.6156 13.8905 35.6007C13.7656 35.5857 13.639 35.5961 13.5182 35.631C13.3974 35.666 13.2849 35.7249 13.1874 35.8043C13.0898 35.8836 13.0092 35.9818 12.9504 36.093C12.8916 36.2041 12.8557 36.3259 12.8449 36.4512C12.8342 36.5765 12.8487 36.7027 12.8877 36.8222C13.6325 39.376 14.9373 41.7316 16.7071 43.7176C16.7286 43.741 16.7521 43.7607 16.7727 43.7841C18.4393 45.6414 20.4784 47.1269 22.7572 48.1439C25.036 49.1608 27.5035 49.6864 29.9989 49.6864C32.4944 49.6864 34.9618 49.1608 37.2407 48.1439C39.5195 47.1269 41.5586 45.6414 43.2252 43.7841C43.2449 43.7616 43.2683 43.7429 43.288 43.7204C45.0591 41.7338 46.3649 39.3772 47.1102 36.8222C47.1492 36.7027 47.1637 36.5765 47.153 36.4512C47.1422 36.3259 47.1063 36.2041 47.0475 36.093C46.9887 35.9818 46.9081 35.8836 46.8105 35.8043C46.713 35.7249 46.6005 35.666 46.4797 35.631C46.3589 35.5961 46.2323 35.5857 46.1074 35.6007C45.9826 35.6156 45.862 35.6556 45.7529 35.7181C45.6438 35.7806 45.5484 35.8644 45.4723 35.9645C45.3963 36.0647 45.3411 36.1791 45.3102 36.301C44.73 38.259 43.7804 40.0878 42.5127 41.6888C39.8746 39.1962 36.4366 37.7223 32.8124 37.5301V33.0929C41.7871 35.266 45.6693 32.0513 47.3436 28.8882C48.4956 26.5119 48.9696 23.8637 48.7133 21.2354C48.6979 21.1027 48.6543 20.9748 48.5854 20.8603C48.5165 20.7458 48.424 20.6474 48.3139 20.5716ZM40.5749 19.7213C42.3306 19.9047 44.038 20.4073 45.613 21.2044L31.4699 26.8641C33.2511 21.7735 36.2999 19.366 40.5749 19.7213ZM19.4277 19.7213C23.698 19.3819 26.7477 21.7782 28.5299 26.8651L14.3868 21.2044C15.9626 20.4068 17.671 19.9038 19.4277 19.7204V19.7213ZM41.2714 43.0979C39.7981 44.5912 38.0427 45.777 36.1073 46.5863C34.1718 47.3956 32.0949 47.8124 29.9971 47.8124C27.8992 47.8124 25.8223 47.3956 23.8869 46.5863C21.9514 45.777 20.1961 44.5912 18.7227 43.0979C21.0198 40.906 24.0183 39.5976 27.1874 39.4041V42.1866C27.1874 42.9325 27.4837 43.6479 28.0111 44.1754C28.5386 44.7028 29.254 44.9991 29.9999 44.9991C30.7447 44.9954 31.4579 44.6979 31.9845 44.1713C32.5112 43.6446 32.8087 42.9314 32.8124 42.1866V39.4041C35.9804 39.598 38.9778 40.906 41.2743 43.0969L41.2714 43.0979ZM32.1289 30.9713C31.9895 30.9321 31.8429 30.9256 31.7006 30.9526C31.5583 30.9795 31.4242 31.039 31.3087 31.1265C31.1933 31.214 31.0997 31.327 31.0352 31.4567C30.9708 31.5864 30.9373 31.7293 30.9374 31.8741V42.1866C30.9377 42.3117 30.9124 42.4355 30.8631 42.5505C30.8137 42.6655 30.7414 42.7691 30.6505 42.8551C30.5655 42.9411 30.4642 43.0093 30.3524 43.0555C30.2407 43.1017 30.1208 43.125 29.9999 43.1241C29.7512 43.1241 29.5128 43.0253 29.337 42.8495C29.1612 42.6737 29.0624 42.4353 29.0624 42.1866V31.8741C29.0624 31.7286 29.0285 31.585 28.9634 31.4549C28.8983 31.3247 28.8038 31.2114 28.6874 31.1241C28.5754 31.0302 28.4411 30.9666 28.2975 30.9394C28.1539 30.9121 28.0057 30.9221 27.8671 30.9685C20.9436 32.9147 16.3808 31.9163 14.3043 27.9985C13.4951 26.3529 13.0816 24.541 13.0968 22.7072L29.7093 29.356C29.8978 29.4197 30.102 29.4197 30.2905 29.356L46.8993 22.7101C46.9135 24.5445 46.4994 26.357 45.6899 28.0032C43.6152 31.9201 39.0524 32.9194 32.1289 30.9713Z" fill="#F26A21"/>
<path d="M11.25 47.8125H14.0625C14.3111 47.8125 14.5496 47.7137 14.7254 47.5379C14.9012 47.3621 15 47.1236 15 46.875C15 46.6264 14.9012 46.3879 14.7254 46.2121C14.5496 46.0363 14.3111 45.9375 14.0625 45.9375H11.25C11.0014 45.9375 10.7629 46.0363 10.5871 46.2121C10.4113 46.3879 10.3125 46.6264 10.3125 46.875C10.3125 47.1236 10.4113 47.3621 10.5871 47.5379C10.7629 47.7137 11.0014 47.8125 11.25 47.8125Z" fill="#F26A21"/>
<path d="M16.875 49.6875H11.25C11.0014 49.6875 10.7629 49.7863 10.5871 49.9621C10.4113 50.1379 10.3125 50.3764 10.3125 50.625C10.3125 50.8736 10.4113 51.1121 10.5871 51.2879C10.7629 51.4637 11.0014 51.5625 11.25 51.5625H16.875C17.1236 51.5625 17.3621 51.4637 17.5379 51.2879C17.7137 51.1121 17.8125 50.8736 17.8125 50.625C17.8125 50.3764 17.7137 50.1379 17.5379 49.9621C17.3621 49.7863 17.1236 49.6875 16.875 49.6875Z" fill="#F26A21"/>
<path d="M48.75 15H45.9375C45.6889 15 45.4504 15.0988 45.2746 15.2746C45.0988 15.4504 45 15.6889 45 15.9375C45 16.1861 45.0988 16.4246 45.2746 16.6004C45.4504 16.7762 45.6889 16.875 45.9375 16.875H48.75C48.9986 16.875 49.2371 16.7762 49.4129 16.6004C49.5887 16.4246 49.6875 16.1861 49.6875 15.9375C49.6875 15.6889 49.5887 15.4504 49.4129 15.2746C49.2371 15.0988 48.9986 15 48.75 15Z" fill="#F26A21"/>
<path d="M43.125 13.125H48.75C48.9986 13.125 49.2371 13.0262 49.4129 12.8504C49.5887 12.6746 49.6875 12.4361 49.6875 12.1875C49.6875 11.9389 49.5887 11.7004 49.4129 11.5246C49.2371 11.3488 48.9986 11.25 48.75 11.25H43.125C42.8764 11.25 42.6379 11.3488 42.4621 11.5246C42.2863 11.7004 42.1875 11.9389 42.1875 12.1875C42.1875 12.4361 42.2863 12.6746 42.4621 12.8504C42.6379 13.0262 42.8764 13.125 43.125 13.125Z" fill="#F26A21"/>
<path d="M30 20.625C30.5178 20.625 30.9375 20.2053 30.9375 19.6875C30.9375 19.1697 30.5178 18.75 30 18.75C29.4822 18.75 29.0625 19.1697 29.0625 19.6875C29.0625 20.2053 29.4822 20.625 30 20.625Z" fill="#F26A21"/>
<path d="M30 16.875C30.5178 16.875 30.9375 16.4553 30.9375 15.9375C30.9375 15.4197 30.5178 15 30 15C29.4822 15 29.0625 15.4197 29.0625 15.9375C29.0625 16.4553 29.4822 16.875 30 16.875Z" fill="#F26A21"/>
</svg>
