<svg width="60" height="60" viewBox="0 0 60 60" fill="none" xmlns="http://www.w3.org/2000/svg">
<path d="M23.2512 42.5746C18.2213 42.5746 13.1913 40.6603 9.36196 36.8308C1.70356 29.1724 1.70356 16.711 9.36196 9.05239C17.021 1.39399 29.4827 1.39399 37.1405 9.05239C44.7989 16.7112 44.7989 29.1724 37.1405 36.8308C33.3114 40.6603 28.2815 42.5746 23.2512 42.5746ZM23.2512 5.31199C18.7342 5.31199 14.2184 7.03063 10.7792 10.4696C3.90244 17.347 3.90244 28.5366 10.7792 35.4138C17.6562 42.2908 28.8461 42.2908 35.7233 35.4138C42.6 28.5366 42.6 17.3469 35.7233 10.4696C32.2851 7.03159 27.7677 5.31199 23.2512 5.31199Z" fill="#F26A21"/>
<path d="M23.2513 37.1175C19.6196 37.1175 15.9877 35.735 13.2228 32.97C7.69268 27.4403 7.69268 18.4424 13.2228 12.9126C18.7526 7.38328 27.7504 7.38328 33.2803 12.9126C38.81 18.4424 38.81 27.4403 33.2803 32.97C30.5154 35.735 26.8833 37.1175 23.2513 37.1175ZM23.2516 10.7685C20.1328 10.7685 17.0143 11.9558 14.64 14.3297C9.89156 19.0781 9.89156 26.8044 14.64 31.5528C19.3887 36.301 27.1144 36.301 31.8631 31.5528C36.6112 26.8046 36.6112 19.0782 31.8631 14.3297C29.4886 11.9558 26.3702 10.7685 23.2516 10.7685Z" fill="#F26A21"/>
<path d="M49.3328 56.6906C48.306 56.6906 47.341 56.2907 46.6155 55.5651L38.9998 47.9495C37.5014 46.4514 37.5014 44.0133 38.9998 42.5153L42.8253 38.6898C44.3237 37.1919 46.7616 37.1919 48.2595 38.6898L55.8749 46.3052C57.3729 47.804 57.3729 50.2416 55.8749 51.7397L52.0498 55.5651C51.3242 56.2907 50.3591 56.6906 49.3328 56.6906ZM45.5426 39.5696C45.0718 39.5696 44.601 39.7488 44.2425 40.107L40.417 43.9325C39.7002 44.6492 39.7002 45.8155 40.417 46.5323L48.0327 54.1479C48.7498 54.8645 49.9154 54.8651 50.6325 54.1479L54.4576 50.3225C55.174 49.6059 55.174 48.4393 54.4572 47.7224L46.8422 40.107C46.4837 39.7488 46.0131 39.5696 45.5426 39.5696Z" fill="#F26A21"/>
<path d="M39.7075 44.2254C39.4511 44.2254 39.1948 44.1276 38.9989 43.9319L33.6725 38.6053C33.281 38.2142 33.281 37.5793 33.6725 37.1881C34.0639 36.7967 34.6981 36.7967 35.0897 37.1881L40.4161 42.5146C40.8076 42.9056 40.8076 43.5407 40.4161 43.9318C40.2204 44.1276 39.964 44.2254 39.7075 44.2254Z" fill="#F26A21"/>
<path d="M43.5341 40.4011C43.2776 40.4011 43.0212 40.3031 42.8255 40.1075L37.4987 34.7811C37.1072 34.3899 37.1072 33.7553 37.4987 33.3639C37.8901 32.9725 38.5243 32.9725 38.9159 33.3639L44.2427 38.6903C44.6341 39.0814 44.6341 39.716 44.2427 40.1075C44.0468 40.3033 43.7904 40.4011 43.5341 40.4011Z" fill="#F26A21"/>
<path d="M23.2517 32.6444C22.9894 32.6444 22.7301 32.633 22.4736 32.6093C19.8043 32.3686 17.5361 30.7355 16.4069 28.2407C15.2304 25.6426 15.5349 22.6115 17.2006 20.3301L22.4423 13.1512C22.8193 12.6345 23.6839 12.6345 24.0611 13.1512L29.3027 20.3297C30.9684 22.6114 31.2729 25.6426 30.0965 28.2407C28.9674 30.7355 26.6991 32.3686 24.0295 32.6097C23.7733 32.633 23.5144 32.6444 23.2517 32.6444ZM23.2517 15.4419L18.8194 21.5121C17.5787 23.2112 17.3539 25.4731 18.2328 27.4142C19.0602 29.2424 20.7132 30.4384 22.6543 30.6133C23.0484 30.6488 23.455 30.6484 23.8491 30.6136C25.7902 30.4384 27.4432 29.2425 28.2706 27.4145C29.1495 25.4732 28.9247 23.2113 27.684 21.5119L23.2517 15.4419Z" fill="#F26A21"/>
<path d="M20.0968 24.5182H19.7073C19.1536 24.5182 18.7051 24.0696 18.7051 23.5159C18.7051 22.9622 19.1536 22.5137 19.7073 22.5137H20.0968C20.6505 22.5137 21.0991 22.9622 21.0991 23.5159C21.0991 24.0695 20.6505 24.5182 20.0968 24.5182Z" fill="#F26A21"/>
<path d="M22.7388 28.3287H22.3489C21.7954 28.3287 21.3467 27.8801 21.3467 27.3265C21.3467 26.7728 21.7954 26.3242 22.3489 26.3242H22.7388C23.2924 26.3242 23.7409 26.7728 23.7409 27.3265C23.7408 27.8801 23.2924 28.3287 22.7388 28.3287Z" fill="#F26A21"/>
<path d="M25.5972 25.6432H25.2073C24.6538 25.6432 24.2051 25.1945 24.2051 24.6409C24.2051 24.0874 24.6536 23.6387 25.2073 23.6387H25.5972C26.1508 23.6387 26.5994 24.0872 26.5994 24.6409C26.5994 25.1945 26.1509 25.6432 25.5972 25.6432Z" fill="#F26A21"/>
<path d="M23.4464 21.6588H23.0569C22.5034 21.6588 22.0547 21.2102 22.0547 20.6565C22.0547 20.103 22.5032 19.6543 23.0569 19.6543H23.4464C24.0001 19.6543 24.4487 20.1029 24.4487 20.6565C24.4487 21.2103 24.0001 21.6588 23.4464 21.6588Z" fill="#F26A21"/>
<path d="M41.8918 50.4269C41.6354 50.4269 41.3791 50.3289 41.1832 50.1333C40.7918 49.7418 40.7918 49.1076 41.1832 48.7161L49.0253 40.8737C49.4168 40.4822 50.051 40.4822 50.4425 40.8737C50.834 41.2649 50.834 41.8993 50.4425 42.2909L42.6004 50.1333C42.4047 50.3289 42.1483 50.4269 41.8918 50.4269Z" fill="#F26A21"/>
<path d="M55.9978 56.69H9.45829C8.90461 56.69 8.45605 56.2411 8.45605 55.6878C8.45605 55.1345 8.90461 54.6855 9.45829 54.6855H55.9978C56.5513 54.6855 57 55.1345 57 55.6878C57 56.2411 56.5513 56.69 55.9978 56.69Z" fill="#F26A21"/>
<path d="M31.1942 51.6842H5.80497C5.25141 51.6842 4.80273 51.2352 4.80273 50.6819C4.80273 50.1286 5.25141 49.6797 5.80497 49.6797H31.1941C31.7477 49.6797 32.1963 50.1286 32.1963 50.6819C32.1963 51.2352 31.7478 51.6842 31.1942 51.6842Z" fill="#F26A21"/>
<path d="M29.3914 46.6993H4.00224C3.44868 46.6993 3 46.2511 3 45.6976C3 45.1439 3.44856 44.6953 4.00224 44.6953H29.3914C29.945 44.6953 30.3936 45.1439 30.3936 45.6976C30.3936 46.2511 29.945 46.6993 29.3914 46.6993Z" fill="#F26A21"/>
<path d="M48.8997 34.7299C48.346 34.7299 47.8975 34.2813 47.8975 33.7276V13.2542C47.8975 12.7006 48.346 12.252 48.8997 12.252C49.4533 12.252 49.9019 12.7006 49.9019 13.2542V33.7276C49.9018 34.2813 49.4533 34.7299 48.8997 34.7299Z" fill="#F26A21"/>
<path d="M54.7464 39.5912C54.1928 39.5912 53.7441 39.1426 53.7441 38.589V18.1155C53.7441 17.562 54.1927 17.1133 54.7464 17.1133C55.3001 17.1133 55.7486 17.5618 55.7486 18.1155V38.5891C55.7486 39.1426 55.3001 39.5912 54.7464 39.5912Z" fill="#F26A21"/>
</svg>
