<svg width="46" height="46" viewBox="0 0 46 46" fill="none" xmlns="http://www.w3.org/2000/svg">
<g clip-path="url(#clip0_161_662)">
<path d="M41.2769 18.2648C39.9689 16.0022 38.1478 13.9846 35.9663 12.3727C37.799 10.6916 38.4935 8.69086 38.5268 8.59364C38.6742 8.15881 38.4693 7.68433 38.0523 7.4913C37.6365 7.29898 37.1406 7.4527 36.9044 7.84612C36.817 7.99001 36.1909 8.94319 34.7955 8.94319C34.3112 8.94319 33.7335 8.82808 33.0544 8.52451C29.6088 6.98453 25.9613 7.57483 25.2991 7.70047H24.779C24.0027 5.83551 21.5786 0.552627 18.8546 0.0504146C17.8736 -0.131379 17.0324 0.185882 16.5484 0.920776C15.9588 1.81676 15.9059 3.53888 16.9464 5.09781C17.3318 5.67442 17.8133 6.49319 18.3632 7.50464C16.8232 7.42673 14.5466 7.54254 12.3507 8.52451C9.71471 9.7016 8.61798 8.04124 8.50182 7.84787C8.27019 7.45796 7.78307 7.30179 7.36719 7.48499C6.95201 7.66748 6.73828 8.13179 6.86954 8.56662C6.90183 8.67366 7.5946 10.9162 9.43816 12.83C7.40509 14.4517 5.7142 16.4427 4.51114 18.6404C3.06802 21.2792 2.33594 24.1236 2.33594 27.0948C2.33594 32.1604 4.4957 36.9186 8.41829 40.4917C12.3177 44.0444 17.496 46.0002 23 46.0002C28.504 46.0002 33.6823 44.0444 37.5817 40.4917C41.5043 36.9186 43.6641 32.1604 43.6641 27.0948C43.6641 24.0183 42.8383 20.9654 41.2769 18.2648ZM13.0838 10.1652C15.5574 9.05901 18.2418 9.25308 19.3227 9.39697L19.4196 9.61877V9.62053L20.4152 11.9028C20.6128 12.3548 21.1368 12.5633 21.5902 12.3699C22.044 12.1776 22.2577 11.6557 22.0693 11.2002C21.8222 10.6028 21.3898 9.61807 21.0712 8.89757C20.9525 8.62979 20.8581 8.41676 20.8069 8.30376C20.8016 8.29112 20.7953 8.27849 20.789 8.26691C20.7774 8.23532 20.7637 8.20479 20.7486 8.17496C19.8239 6.37808 19.0469 5.00691 18.4404 4.0997C17.868 3.24338 17.8277 2.24702 18.0495 1.90906C18.0811 1.86168 18.1555 1.74832 18.5285 1.81676C19.7558 2.04382 21.912 5.23082 23.3341 8.92178C23.4682 9.26852 23.8005 9.49735 24.1725 9.49735H25.3879C25.4511 9.49735 25.5146 9.49033 25.576 9.47769C25.5939 9.47418 26.5102 9.28642 27.8228 9.28642C29.1003 9.28642 30.7543 9.46436 32.3213 10.1652C33.3903 10.6429 34.3094 10.7797 35.0749 10.7337C34.7534 11.0654 34.3824 11.3897 33.9564 11.6806C32.0932 12.9539 29.7579 13.2055 27.0152 12.4292C26.6801 12.3337 26.3197 12.4418 26.0915 12.705C25.8634 12.9683 25.8087 13.3403 25.9494 13.6589C26.087 13.9664 26.334 14.2106 26.7096 14.5819C27.3988 15.2617 28.5345 16.3848 29.1192 18.2494C28.2162 17.8665 27.3602 17.8146 26.7457 17.7767C26.4527 17.7588 26.1498 17.7398 26.0196 17.6931L25.9315 17.6626C23.9065 16.9474 23.6047 16.2988 23.6047 15.9752C23.6047 15.4793 23.1941 15.0768 22.6982 15.0768C22.2023 15.0768 21.7997 15.4793 21.7997 15.9752C21.7997 16.747 19.5256 18.1497 18.5966 18.481C18.4899 18.52 18.3776 18.5558 18.2607 18.5944C17.7406 18.7632 17.1152 18.9653 16.3839 19.4335C17.0099 17.5556 18.1133 16.2602 18.7952 15.4614C19.1213 15.0778 19.3371 14.8255 19.4547 14.563C19.5958 14.244 19.541 13.872 19.3129 13.6088C19.1395 13.4094 18.8907 13.2989 18.6335 13.2989C18.5517 13.2989 18.4692 13.3097 18.3885 13.3329C15.6247 14.1155 13.2755 13.7365 11.4049 12.2056H11.4038C10.8395 11.7427 10.3741 11.2226 9.99406 10.7095C10.8371 10.8236 11.8639 10.7106 13.0838 10.1652C15.5574 9.05901 11.8639 10.7106 13.0838 10.1652ZM23 44.2034C12.5971 44.2034 4.13281 36.5287 4.13281 27.0948C4.13281 22.0158 6.56491 17.2853 10.8297 14.0211C12.0924 14.8939 13.5717 15.3951 15.1011 15.499C15.5538 15.5295 16.0087 15.5271 16.4611 15.4955C15.4479 16.8712 14.269 18.9601 14.129 21.8172C14.11 22.2018 14.3382 22.5549 14.6958 22.6967C14.8028 22.7391 14.9151 22.7595 15.0264 22.7595C15.172 22.7595 15.3149 22.7247 15.4433 22.6574C15.4721 22.6419 15.4991 22.6247 15.5258 22.6079C15.5932 22.5619 15.6553 22.5071 15.71 22.4433C17.0426 20.8791 17.9849 20.5727 18.8159 20.3032C18.949 20.26 19.0746 20.2186 19.2023 20.1737C19.2329 20.1621 21.4207 19.2815 22.6971 17.9069C23.5517 18.7274 24.7888 19.1647 25.3331 19.357L25.4142 19.3858C25.7852 19.5177 26.1975 19.543 26.6352 19.57C27.6017 19.6293 28.6981 19.6967 29.6944 20.8664C29.9432 21.1595 30.351 21.2609 30.7087 21.1198C31.0663 20.9777 31.2944 20.6246 31.2755 20.2403C31.1481 17.6338 30.1478 15.8405 29.2003 14.6427C30.6206 14.7423 32.0654 14.5651 33.3868 14.0197C33.7518 13.8692 34.108 13.6954 34.4481 13.4947C36.632 15.0105 38.4479 16.9607 39.7218 19.164C41.1249 21.5915 41.8672 24.3335 41.8672 27.0944C41.8672 36.5287 33.4029 44.2034 23 44.2034Z" fill="#F26A21"/>
<path d="M23 42.3985C13.7854 42.3985 6.28906 35.5331 6.28906 27.0945C6.28906 26.5982 6.69125 26.196 7.1875 26.196C7.68375 26.196 8.08594 26.5982 8.08594 27.0945C8.08594 34.5424 14.7765 40.6016 23 40.6016C23.4962 40.6016 23.8984 41.0038 23.8984 41.5C23.8984 41.9963 23.4962 42.3985 23 42.3985Z" fill="#F26A21"/>
<path d="M26.7135 42.0037C26.2172 42.0037 25.8147 41.6015 25.8147 41.1052C25.8147 40.609 26.2165 40.2068 26.7124 40.2068H26.7135C27.2097 40.2068 27.6119 40.609 27.6119 41.1052C27.6119 41.6015 27.2097 42.0037 26.7135 42.0037Z" fill="#F26A21"/>
</g>
<defs>
<clipPath id="clip0_161_662">
<rect width="46" height="46" fill="white"/>
</clipPath>
</defs>
</svg>
