<svg width="46" height="46" viewBox="0 0 46 46" fill="none" xmlns="http://www.w3.org/2000/svg">
<g clip-path="url(#clip0_161_595)">
<path d="M26.2497 32.5173C25.9171 32.6653 25.7673 33.055 25.9151 33.3877L26.661 35.0658C26.7701 35.3116 27.0111 35.4574 27.2638 35.4574C27.3533 35.4574 27.4443 35.4391 27.5313 35.4004C27.8639 35.2525 28.0137 34.8628 27.8659 34.5301L27.1201 32.852C26.9721 32.5193 26.5823 32.3697 26.2497 32.5173Z" fill="#F26A21"/>
<path d="M31.3648 16.6251C31.3919 16.6251 31.4196 16.6233 31.4473 16.6199L32.939 16.4336C33.3003 16.3883 33.5566 16.0588 33.5114 15.6976C33.4663 15.3366 33.1376 15.0796 32.7755 15.1252L31.2838 15.3117C30.9226 15.3568 30.6662 15.6862 30.7115 16.0475C30.753 16.3809 31.0371 16.6251 31.3648 16.6251Z" fill="#F26A21"/>
<path d="M29.7356 23.0159L31.2273 23.5753C31.3036 23.6038 31.3818 23.6174 31.4587 23.6174C31.7255 23.6174 31.9768 23.4542 32.0761 23.1896C32.204 22.8486 32.0311 22.4686 31.6903 22.3407L30.1986 21.7813C29.8571 21.6534 29.4777 21.8263 29.3498 22.1671C29.2219 22.508 29.3947 22.888 29.7356 23.0159Z" fill="#F26A21"/>
<path d="M34.3485 11.4042C34.4085 11.4042 34.4696 11.3961 34.5299 11.3788L35.8351 11.0059C36.1853 10.9059 36.3881 10.5409 36.288 10.191C36.1878 9.84054 35.8222 9.63802 35.473 9.73809L34.1679 10.111C33.8177 10.211 33.6149 10.576 33.715 10.9259C33.7977 11.2156 34.0616 11.4042 34.3485 11.4042Z" fill="#F26A21"/>
<path d="M33.871 27.4831L32.1929 26.7373C31.86 26.5897 31.4705 26.7392 31.3226 27.0719C31.1748 27.4047 31.3246 27.7943 31.6572 27.9422L33.3353 28.6881C33.4224 28.7267 33.5132 28.745 33.6027 28.745C33.8553 28.745 34.0964 28.5991 34.2057 28.3534C34.3535 28.0207 34.2037 27.631 33.871 27.4831Z" fill="#F26A21"/>
<path d="M34.4367 19.5472C34.4573 19.8974 34.7477 20.1677 35.0941 20.1677C35.1071 20.1677 35.1202 20.1673 35.1335 20.1665L36.7184 20.0733C37.0818 20.052 37.3591 19.74 37.3377 19.3765C37.3164 19.0131 37.0067 18.7374 36.6409 18.7572L35.056 18.8504C34.6926 18.8718 34.4153 19.1837 34.4367 19.5472Z" fill="#F26A21"/>
<path d="M15.0503 31.8082C14.6862 31.8082 14.3911 32.1033 14.3911 32.4675V33.7727C14.3911 34.1369 14.6862 34.432 15.0503 34.432C15.4144 34.432 15.7096 34.1368 15.7096 33.7727V32.4675C15.7096 32.1033 15.4145 31.8082 15.0503 31.8082Z" fill="#F26A21"/>
<path d="M26.7042 29.0178C26.8327 29.1466 27.0016 29.2109 27.1702 29.2109C27.3389 29.2109 27.5076 29.1466 27.6363 29.0178C27.8938 28.7604 27.8938 28.343 27.6363 28.0856L26.5176 26.9669C26.2604 26.7094 25.8427 26.7094 25.5855 26.9669C25.328 27.2243 25.328 27.6417 25.5855 27.8991L26.7042 29.0178Z" fill="#F26A21"/>
<path d="M10.104 34.91C9.75443 34.8105 9.38908 35.0127 9.28888 35.3627L8.91588 36.6679C8.81595 37.018 9.01859 37.3829 9.36864 37.4829C9.42916 37.5001 9.49021 37.5084 9.5502 37.5084C9.83696 37.5084 10.1009 37.3198 10.1837 37.0302L10.5567 35.725C10.6567 35.3748 10.454 35.01 10.104 34.91Z" fill="#F26A21"/>
<path d="M40.1083 0.256169C39.9924 0.10626 39.8177 0.0133083 39.6287 0.00117844C39.4379 -0.0100285 39.2545 0.059059 39.1205 0.193015L36.6826 2.63099C36.6816 2.63178 36.6807 2.6327 36.6799 2.63362L2.63377 36.6796C2.63127 36.6822 2.62889 36.6845 2.62639 36.687L0.193164 39.1204C0.0590764 39.2542 -0.0106703 39.4393 0.00132771 39.6285C0.0134576 39.8176 0.106409 39.9923 0.256319 40.1082C5.37011 44.058 11.4791 46 17.5691 46C24.8921 46 32.1875 43.1917 37.6896 37.6895C47.7677 27.6115 48.8074 11.5187 40.1083 0.256169ZM37.0739 4.10424C43.8135 13.428 42.8113 26.4147 34.6132 34.613C26.415 42.811 13.4286 43.8135 4.10452 37.0737L37.0739 4.10424ZM36.7576 36.7572C27.3248 46.1899 12.3672 47.3199 1.66286 39.5154L3.16103 38.0172C13.018 45.2704 26.8397 44.2511 35.5455 35.545C44.2516 26.839 45.2709 13.0173 38.0176 3.16048L39.5157 1.66244C47.3202 12.3668 46.1901 27.3245 36.7576 36.7572Z" fill="#F26A21"/>
<path d="M21.2069 32.4886C21.2633 32.8085 21.5414 33.0334 21.8553 33.0334C21.8933 33.0334 21.9319 33.0301 21.9707 33.0233C22.3293 32.96 22.5686 32.6181 22.5053 32.2595L22.2256 30.6745C22.1623 30.3161 21.8212 30.0766 21.4618 30.1399C21.1032 30.2032 20.8639 30.5451 20.9271 30.9037L21.2069 32.4886Z" fill="#F26A21"/>
<path d="M18.5543 38.5327C18.5676 38.5335 18.5805 38.5339 18.5937 38.5339C18.9401 38.5339 19.2305 38.2636 19.2511 37.9134L19.3443 36.3285C19.3657 35.965 19.0884 35.653 18.725 35.6317C18.3628 35.6099 18.0496 35.8873 18.0282 36.251L17.935 37.8359C17.9136 38.1994 18.1909 38.5113 18.5543 38.5327Z" fill="#F26A21"/>
</g>
<defs>
<clipPath id="clip0_161_595">
<rect width="46" height="46" fill="white"/>
</clipPath>
</defs>
</svg>
