<svg width="71" height="71" viewBox="0 0 71 71" fill="none" xmlns="http://www.w3.org/2000/svg">
<path fill-rule="evenodd" clip-rule="evenodd" d="M42.5435 43.6882H38.0454V28.186H42.5435C46.9473 28.186 50.4621 31.6158 50.4621 35.9142C50.4621 40.2127 46.9473 43.6875 42.5435 43.6875M15.041 32.4852H9.74685V25.5799H15.041C17.0085 25.5799 18.5551 27.0892 18.5551 29.0097C18.5551 30.9301 17.0091 32.4852 15.041 32.4852ZM42.4499 18.6747H38.0454V18.6296H28.2992V22.7524C29.4373 24.5935 30.0902 26.7521 30.0902 29.0554C30.0902 31.3587 29.4557 33.4669 28.2992 35.3255V46.293L23.8025 37.5151C26.5198 35.6404 28.3006 32.5767 28.3006 29.0554L28.2992 28.9269V28.9659C28.2511 23.2901 23.5846 18.6747 17.7584 18.6289V18.674H0V53.1989H9.74617V39.4348H14.1975L21.2256 53.1989H42.4499C52.2429 53.1989 60.1614 45.4707 60.1614 35.9136C60.1614 26.3564 52.2429 18.674 42.4499 18.674V18.6747Z" fill="#F26A21"/>
<path d="M60.1611 29.2068C60.8638 28.5955 61.5907 27.958 62.3411 27.2956C63.0916 26.6331 63.6586 26.108 64.0421 25.7209C65.0535 24.8034 65.7243 24.0083 66.0546 23.3358C66.3848 22.6633 66.5502 21.945 66.5502 21.1802C66.5502 20.3239 66.3668 19.6466 66.0019 19.1471C65.635 18.6476 65.102 18.3979 64.4021 18.3979C63.8932 18.3979 63.4169 18.5278 62.978 18.7876C62.5391 19.0475 62.3176 19.3255 62.3176 19.6211C62.3176 20.1105 62.5917 20.3549 63.1428 20.3549C63.545 20.3549 63.8697 20.47 64.1175 20.6989C64.3654 20.9284 64.49 21.226 64.49 21.5935C64.49 22.052 64.3252 22.4344 63.995 22.74C63.6648 23.0456 63.2598 23.1985 62.7807 23.1985C62.1847 23.1985 61.689 23.0329 61.2951 22.7016C60.9012 22.3704 60.7039 21.9349 60.7039 21.3943C60.7039 20.7621 60.9275 20.1893 61.3747 19.6743C61.8219 19.1599 62.3252 18.785 62.8846 18.5507C63.4433 18.3164 63.9389 18.1656 64.3702 18.0996C64.8015 18.0337 65.2619 18 65.752 18C67.0404 18 68.137 18.2753 69.0425 18.8253C69.948 19.376 70.4 20.1711 70.4 21.2105C70.4 21.8628 70.1896 22.4438 69.7694 22.9534C69.3485 23.463 68.8777 23.8474 68.3557 24.108C67.8337 24.3678 67.0328 24.699 65.9521 25.1016C64.8714 25.5042 64.2726 25.797 64.1549 25.9808V26.0421C64.4208 26.0219 64.7274 26.0064 65.0729 25.9963C65.419 25.9862 65.7894 25.9808 66.1833 25.9808H68.7067C69.2287 25.9808 69.5956 25.9195 69.8088 25.7977C70.022 25.6752 70.1785 25.5022 70.2803 25.278C70.3813 25.0538 70.4665 24.8343 70.5357 24.6203C70.6049 24.4062 70.6666 24.2278 70.7192 24.0851H70.9269L69.905 29.3138H60.1618V29.2068H60.1611Z" fill="#F26A21"/>
</svg>
