<svg width="16" height="16" viewBox="0 0 16 16" fill="none" xmlns="http://www.w3.org/2000/svg">
<path d="M6.78398 0.799988C6.78398 0.799988 3.13598 3.03999 4.97598 6.86399C4.97598 6.86399 8.81598 5.90399 6.78398 0.799988ZM1.66398 4.51199C1.66398 4.51199 -1.10402 8.20799 2.25598 11.296C2.25598 11.296 5.72798 8.81599 1.66398 4.51199ZM12.704 8.59199C12.704 8.59199 10.032 5.75999 6.79998 7.43999C7.50398 6.67199 8.31998 5.95199 9.21598 5.34399C9.85598 6.03199 12 7.75999 15.408 4.65599C15.408 4.65599 12.432 3.10399 9.02398 4.70399C6.79998 5.83999 3.64798 8.79999 1.69598 15.024C1.69598 15.024 1.88798 15.408 2.46398 15.024C2.46398 15.024 2.78398 13.968 3.47198 12.512C4.11198 13.408 6.07998 15.296 10.016 12.704C10.016 12.704 7.23198 9.74399 3.90398 11.664C4.46398 10.592 5.18398 9.40799 6.09598 8.27199C6.63998 9.08799 8.60798 11.296 12.704 8.59199Z" fill="white"/>
</svg>
