<svg width="46" height="46" viewBox="0 0 46 46" fill="none" xmlns="http://www.w3.org/2000/svg">
<g clip-path="url(#clip0_161_653)">
<path d="M41.4773 17.2307C41.3968 17.0115 41.3037 16.798 41.1988 16.5917C41.7528 16.0497 41.7925 15.1734 41.4667 14.5038C40.6455 12.8159 39.5098 11.6628 38.1603 11.1377C38.5328 8.50616 38.6301 4.07481 36.1304 0.301648C35.9249 -0.00858352 35.5068 -0.0932819 35.1968 0.112132C34.8866 0.317635 34.8018 0.735558 35.0073 1.04579C37.2307 4.40184 37.1726 8.3938 36.8427 10.8313C35.355 10.6989 33.731 11.232 32.0025 12.4229C31.3355 12.8823 31.0203 13.782 31.3288 14.544C28.8464 16.8083 27.8707 20.5446 26.9909 23.6619C25.446 29.5875 21.9234 34.9103 16.3027 37.7293C15.5539 38.1207 16.1496 39.3296 16.9268 38.9233C22.8764 35.8132 26.4962 30.3749 28.2874 24.0278C29.0954 21.1647 29.9756 17.48 32.333 15.4539C32.5647 15.5233 32.8203 15.5453 33.088 15.5135C34.0307 15.4019 34.8449 15.3055 35.8118 15.4531C36.1804 15.5094 36.5234 15.2567 36.5795 14.8889C36.6356 14.5211 36.383 14.1774 36.0154 14.1213C34.8676 13.946 33.9262 14.0575 32.9297 14.1756C32.5061 14.2256 32.4374 13.7592 32.7668 13.5322C34.445 12.3761 35.9485 11.9475 37.2369 12.2571C37.2432 12.2588 37.2496 12.2603 37.2559 12.2618C38.7692 12.6299 39.7326 14.0128 40.2553 15.0931C40.4252 15.4423 40.292 15.7859 39.8774 15.6489C39.7888 15.6197 39.6857 15.5755 39.5623 15.5138C39.2298 15.3473 38.825 15.482 38.6585 15.8148C38.492 16.1476 38.6267 16.5522 38.9596 16.7187C39.2551 16.8802 39.5694 16.9821 39.9024 17.0246C43.3112 23.7913 36.4997 35.7186 31.3541 39.6701C27.7613 42.5605 23.1853 44.2086 17.753 44.5683C11.4206 44.8583 6.74494 43.9005 5.29088 42.3322C5.39327 42.2615 5.6815 42.1159 6.39878 42.025C8.903 41.7075 11.2327 41.1824 13.3233 40.4639C14.1205 40.1899 13.719 38.9038 12.8854 39.1898C10.8818 39.8784 8.64244 40.3826 6.22939 40.6884C4.7588 40.8748 3.98214 41.3837 3.92116 42.2009C3.82469 43.492 5.77895 44.5137 7.6398 45.0393C10.9052 45.9616 14.4726 46.1357 17.8421 45.9127C28.8346 45.2673 36.3015 39.2252 40.3286 29.2424C42.1619 24.6147 42.5807 20.2367 41.4773 17.2307Z" fill="#F26A21"/>
<path d="M31.6226 23.187C32.1098 21.3675 32.7622 19.492 33.9175 17.981C34.1401 17.6898 33.9604 17.2298 33.6759 17.0593C33.3315 16.853 32.974 17.0135 32.7543 17.301C31.5363 18.894 30.8374 20.9101 30.3236 22.8289C30.099 23.6673 31.3982 24.0251 31.6226 23.187Z" fill="#F26A21"/>
</g>
<defs>
<clipPath id="clip0_161_653">
<rect width="46" height="46" fill="white"/>
</clipPath>
</defs>
</svg>
