<svg width="46" height="46" viewBox="0 0 46 46" fill="none" xmlns="http://www.w3.org/2000/svg">
<path d="M43.4647 21.7553C41.9364 20.8731 40.2138 20.359 38.4404 20.2559C38.3663 19.443 38.0567 18.6672 37.5476 18.019C36.7283 16.9922 35.4508 16.3874 33.919 16.288C34.1196 15.8759 34.1844 15.4134 34.1044 14.9639C33.7357 13.0801 30.4307 11.4275 27.0318 11.4275C24.8768 11.4268 22.771 12.0544 20.9856 13.2297C20.9373 13.193 20.8902 13.1559 20.8405 13.1196C19.2087 11.9553 17.2844 11.2416 15.2707 11.0538C14.9012 11.0183 14.5247 11.0002 14.1516 11.0002C12.361 10.9902 10.5949 11.4054 9.00629 12.21C7.543 12.9785 6.64861 13.9634 6.5523 14.9123C6.45943 15.8277 7.08801 16.7519 8.33273 17.5524C7.23994 18.1874 6.26976 19.0039 5.46613 19.9649C4.30316 21.374 3.82628 22.797 4.19042 23.7714C4.26388 23.965 4.37047 24.1451 4.50566 24.3041C3.81861 24.5362 3.15823 24.8373 2.53523 25.2026C0.9477 26.1393 0 27.3177 0 28.3546C0 29.8394 1.92344 31.125 4.70367 31.7298C4.65288 31.9011 4.62618 32.0783 4.62428 32.2566C4.62428 34.3207 8.34165 36 12.9109 36C16.8397 36 20.1364 34.758 20.984 33.0979C22.4032 33.4802 23.87 33.6692 25.3424 33.6593C29.9117 33.6593 33.6291 31.98 33.6291 29.9158C33.5956 29.3257 33.3627 28.763 32.9666 28.3153C33.1086 28.2466 33.2499 28.1753 33.3899 28.0996C34.7984 28.4751 36.2531 28.6606 37.7133 28.651C42.2826 28.651 46 26.9716 46 24.9074C46 23.8705 45.0522 22.6921 43.4647 21.7553ZM25.2269 12.7086C25.8219 12.5987 26.4262 12.5434 27.0317 12.5435C30.2975 12.5435 32.774 14.1261 32.9789 15.173C33.0447 15.5089 32.8951 15.9094 32.5634 16.3287C30.7989 16.5733 29.133 17.271 27.7369 18.35C27.3795 18.621 27.0396 18.9134 26.7193 19.2253C26.6498 19.2392 26.5807 19.2536 26.5108 19.2665C25.6057 19.4365 24.6863 19.5233 23.7646 19.5258C22.2714 19.5258 21.086 19.2877 20.263 18.9414C21.8996 18.4119 22.9389 17.5494 23.0454 16.4993C23.1228 15.7366 22.6914 14.8474 21.8619 13.9976C22.8911 13.3671 24.0325 12.9299 25.2269 12.7086ZM24.2862 23.1747C24.2074 23.1249 24.1279 23.0753 24.0455 23.0267C22.3497 22.0505 20.4199 21.5262 18.4501 21.5067C18.9419 21.0452 19.343 20.5002 19.6339 19.8984C20.672 20.3732 22.0942 20.6416 23.7645 20.6416C24.3717 20.6409 24.9782 20.6053 25.581 20.5348C24.9929 21.3335 24.5545 22.2272 24.2862 23.1747ZM24.997 25.2469C23.0919 25.2964 21.2313 25.8186 19.5911 26.7638C18.7898 27.2085 18.0947 27.814 17.5517 28.54C17.2306 28.3997 16.901 28.2742 16.5627 28.1633C16.4552 27.1748 15.5288 26.0821 14.0381 25.2026C13.5344 24.907 13.0058 24.6537 12.4579 24.4456C13.7321 23.4935 15.8345 22.62 18.2944 22.62C21.4438 22.62 24.0089 24.0515 24.997 25.2469ZM7.69253 15.022C7.8085 13.8789 10.6343 12.1162 14.1516 12.1162C14.4873 12.1162 14.8259 12.1324 15.1581 12.1643C19.1922 12.5525 22.025 15.2084 21.9052 16.3895C21.8469 16.9648 20.9983 17.5641 19.6221 17.9566C18.9175 16.759 16.7876 15.9462 14.2522 15.9462C14.0815 15.9462 13.9103 15.9502 13.7387 15.9582C11.9875 15.627 10.7111 14.9711 10.0957 14.443L9.33826 15.2802C9.88894 15.7303 10.5081 16.0945 11.1735 16.3595C10.8902 16.4362 10.6101 16.5214 10.3361 16.6185C10.06 16.7163 9.78839 16.8259 9.52121 16.944C9.48996 16.9275 9.45754 16.9115 9.42665 16.8947C8.30182 16.2841 7.63733 15.5665 7.69253 15.022ZM6.3593 20.664C7.51093 19.2991 9.0206 18.2634 10.728 17.667C11.8581 17.2689 13.0504 17.0643 14.2522 17.0621C16.6295 17.0621 18.4057 17.8774 18.6879 18.633C18.9217 19.2587 18.1455 20.4728 16.5108 21.6416C15.1088 21.8496 13.7613 22.3199 12.5429 23.0267C12.0777 23.2972 11.6424 23.6137 11.2438 23.9711C11.1841 23.9855 11.1245 24 11.0649 24.0136C9.35381 23.596 7.56664 23.57 5.8435 23.9378C5.58856 23.8306 5.3833 23.6354 5.26715 23.3897C5.08758 22.9092 5.35573 21.88 6.3593 20.664ZM5.25521 30.6979C2.70576 30.1949 1.14579 29.1286 1.14579 28.3546C1.14579 27.1677 4.23306 24.7959 8.28674 24.7959C11.796 24.7959 14.5791 26.5728 15.2639 27.8204C14.4901 27.6626 13.7016 27.5826 12.9109 27.5819C11.146 27.5801 9.40483 27.9784 7.82533 28.7454C5.76563 28.6572 4.21377 28.0635 3.47872 27.5482L2.80952 28.454C3.65127 29.0439 4.88976 29.4824 6.27053 29.7064C5.89135 29.9948 5.55033 30.3278 5.25521 30.6979ZM12.9109 34.8841C8.61808 34.8841 5.77005 33.3027 5.77005 32.2567C5.77005 31.0698 8.85719 28.6979 12.9109 28.6979C16.9646 28.6979 20.0519 31.0698 20.0519 32.2567C20.0519 33.3027 17.2038 34.8841 12.9109 34.8841ZM25.3424 32.5434C23.932 32.5557 22.5273 32.3661 21.1734 31.9808C21.0804 31.3795 20.691 30.7442 20.0606 30.1435C21.3285 30.9434 23.3454 31.435 25.4041 31.435C25.9757 31.4355 26.547 31.4036 27.1148 31.3396L26.9815 30.2313C26.4579 30.2903 25.9312 30.3196 25.4041 30.319C23.0836 30.319 21.3306 29.6675 20.5345 29.1095L19.8879 29.9847C19.5091 29.654 19.0987 29.3592 18.6623 29.1045C18.6355 29.0887 18.6078 29.0741 18.5808 29.0584C19.5218 27.8489 22.1272 26.3571 25.3425 26.3571C29.3962 26.3571 32.4834 28.729 32.4834 29.9159C32.4833 30.9619 29.6352 32.5434 25.3424 32.5434ZM32.1184 27.4731C31.8633 27.2663 31.5952 27.075 31.3158 26.9004C32.9099 26.2749 34.2962 25.2336 35.3224 23.8909L34.3969 23.2331C33.9587 23.8111 33.4395 24.3265 32.8545 24.7642C31.9859 25.4452 30.967 25.9208 29.878 26.1539C29.0693 25.8127 28.2224 25.565 27.3545 25.4159C26.9965 24.7119 27.2324 23.605 28.0003 22.5004L27.0516 21.8748C26.3639 22.864 26.0261 23.8682 26.047 24.7482C25.8212 24.4405 25.5608 24.1582 25.2708 23.9067C25.5654 22.3022 26.6828 20.5611 28.44 19.2312C29.9879 18.0596 31.8197 17.3876 33.4657 17.3876C34.8373 17.3876 35.9657 17.855 36.6428 18.7039C38.2012 20.6569 37.0569 24.0715 34.0921 26.3154C33.4838 26.7764 32.8213 27.1651 32.1184 27.4731ZM37.7134 27.5351C36.7061 27.5385 35.701 27.4453 34.7125 27.2567C34.7399 27.2364 34.7679 27.2172 34.7952 27.1966C35.2078 26.8843 35.5969 26.5437 35.9594 26.1773L35.9409 26.3313C36.5088 26.3953 37.08 26.4272 37.6517 26.4266C39.8189 26.4266 41.9413 25.8826 43.1906 25.007L42.5212 24.1012C41.7253 24.6592 39.9724 25.3107 37.6517 25.3107C37.3475 25.3107 37.046 25.3002 36.7483 25.2814C37.664 24.152 38.2475 22.8015 38.4366 21.3743C42.1285 21.6313 44.8543 23.7922 44.8543 24.9074C44.8543 25.9536 42.0061 27.5351 37.7134 27.5351Z" fill="#F26A21"/>
<path d="M13.6174 22.8114C15.3739 22.1723 16.9295 21.0935 17.6771 19.9962L16.8603 19.4397C16.384 20.1389 15.1604 21.1984 13.2795 21.8827C12.8524 22.0387 12.4166 22.1697 11.9744 22.2751L12.202 23.2368C12.6817 23.1225 13.1543 22.9805 13.6174 22.8114Z" fill="#F26A21"/>
<path d="M14.0657 31.845C12.064 31.845 10.5521 31.2679 9.86542 30.7737L9.28809 31.5759C10.3657 32.3515 12.1964 32.8332 14.0657 32.8332C14.5587 32.8337 15.0514 32.8056 15.5412 32.749L15.4264 31.7675C14.9747 31.8196 14.5204 31.8454 14.0657 31.845Z" fill="#F26A21"/>
</svg>
