<svg width="32" height="32" viewBox="0 0 32 32" fill="none" xmlns="http://www.w3.org/2000/svg">
<path d="M16 0C24.8366 0 32 7.16344 32 16C32 24.8366 24.8366 32 16 32C7.16344 32 0 24.8366 0 16C0 7.16344 7.16344 0 16 0ZM18.6025 8.06836C16.3401 8.06836 14.7336 9.44878 14.7334 11.9844V14.3184H12.2334V17.6514H14.7334V24.7344H18.0664V17.6514H20.1504L20.9834 14.3184H18.0664V12.6514C18.0664 11.7931 18.0668 10.9844 19.7334 10.9844H20.9834V8.18457C20.7117 8.14874 19.6858 8.06836 18.6025 8.06836Z" fill="white"/>
</svg>
