<svg width="32" height="32" viewBox="0 0 32 32" fill="none" xmlns="http://www.w3.org/2000/svg">
<path d="M16 0C24.8366 0 32 7.16344 32 16C32 24.8366 24.8366 32 16 32C7.16344 32 0 24.8366 0 16C0 7.16344 7.16344 0 16 0ZM14.667 7.5C13.1098 7.5 11.8911 7.49923 10.9424 7.62695C9.97949 7.75663 9.21959 8.02701 8.62305 8.62305C8.02635 9.21932 7.75649 9.97939 7.62695 10.9424C7.49935 11.8912 7.5 13.1099 7.5 14.667V16.333C7.5 17.8902 7.49923 19.1089 7.62695 20.0576C7.75663 21.0205 8.02701 21.7804 8.62305 22.377C9.21932 22.9736 9.97939 23.2435 10.9424 23.373C11.8912 23.5007 13.1099 23.5 14.667 23.5H16.333C17.8902 23.5 19.1089 23.5008 20.0576 23.373C21.0205 23.2434 21.7804 22.973 22.377 22.377C22.9736 21.7807 23.2435 21.0206 23.373 20.0576C23.5007 19.1088 23.5 17.8901 23.5 16.333V14.667C23.5 13.1098 23.5008 11.8911 23.373 10.9424C23.2434 9.97949 22.973 9.21959 22.377 8.62305C21.7807 8.02635 21.0206 7.75649 20.0576 7.62695C19.1088 7.49935 17.8901 7.5 16.333 7.5H14.667ZM16.333 8.5C17.9181 8.5 19.0572 8.50068 19.9238 8.61719C20.7761 8.73181 21.2904 8.95025 21.6699 9.33008C22.0495 9.7101 22.2671 10.2242 22.3818 11.0762C22.4985 11.9427 22.5 13.0817 22.5 14.667V16.333C22.5 17.9181 22.4993 19.0572 22.3828 19.9238C22.2682 20.7761 22.0497 21.2904 21.6699 21.6699C21.2899 22.0495 20.7758 22.2671 19.9238 22.3818C19.0573 22.4985 17.9183 22.5 16.333 22.5H14.667C13.0819 22.5 11.9428 22.4993 11.0762 22.3828C10.2239 22.2682 9.70958 22.0497 9.33008 21.6699C8.95046 21.2899 8.73287 20.7758 8.61816 19.9238C8.50151 19.0573 8.5 17.9183 8.5 16.333V14.667C8.5 13.0819 8.50068 11.9428 8.61719 11.0762C8.73181 10.2239 8.95025 9.70958 9.33008 9.33008C9.7101 8.95046 10.2242 8.73287 11.0762 8.61816C11.9427 8.50151 13.0817 8.5 14.667 8.5H16.333ZM15.5 12.5C13.8431 12.5 12.5 13.8431 12.5 15.5C12.5 17.1569 13.8431 18.5 15.5 18.5C17.1569 18.5 18.5 17.1569 18.5 15.5C18.5 13.8431 17.1569 12.5 15.5 12.5ZM15.5 13.5C16.6046 13.5 17.5 14.3954 17.5 15.5C17.5 16.6046 16.6046 17.5 15.5 17.5C14.3954 17.5 13.5 16.6046 13.5 15.5C13.5 14.3954 14.3954 13.5 15.5 13.5ZM19.25 10.5C18.5596 10.5 18 11.0596 18 11.75C18 12.4404 18.5596 13 19.25 13C19.9404 13 20.5 12.4404 20.5 11.75C20.5 11.0596 19.9404 10.5 19.25 10.5Z" fill="white"/>
</svg>
