<svg width="32" height="32" viewBox="0 0 32 32" fill="none" xmlns="http://www.w3.org/2000/svg">
<path d="M16 0C24.8366 0 32 7.16344 32 16C32 24.8366 24.8366 32 16 32C7.16344 32 0 24.8366 0 16C0 7.16344 7.16344 0 16 0ZM14.0527 22.1006H16.7109V17.7988C16.7109 16.6664 16.9708 15.5684 18.4932 15.5684C20.0632 15.5684 20.2666 16.8657 20.2666 17.874V22.1006H22.9336V17.333C22.9336 14.9913 22.3108 13.1914 19.4316 13.1914C18.8925 13.1681 18.3563 13.2853 17.876 13.5312C17.3958 13.7772 16.9875 14.1437 16.6914 14.5947V13.1807H14.0527V22.1006ZM9.59961 22.0986H12.2666V13.1895H9.59961V22.0986ZM10.9336 9.60059C10.6696 9.60184 10.4115 9.68083 10.1924 9.82812C9.97332 9.97547 9.80289 10.1847 9.70215 10.4287C9.60145 10.6728 9.57461 10.9412 9.62598 11.2002C9.67741 11.4592 9.80485 11.6976 9.99121 11.8848C10.1772 12.0716 10.4143 12.1994 10.6729 12.251C10.9315 12.3026 11.1998 12.276 11.4434 12.1748C11.687 12.0727 11.8955 11.9005 12.042 11.6807C12.1883 11.4609 12.2663 11.2025 12.2666 10.9385C12.2672 10.7631 12.2337 10.589 12.167 10.4268C12.1003 10.2645 12.0017 10.1174 11.8779 9.99316C11.7541 9.86882 11.6064 9.76947 11.4443 9.70215C11.2824 9.63498 11.1089 9.60062 10.9336 9.60059Z" fill="white"/>
</svg>
