<svg width="46" height="46" viewBox="0 0 46 46" fill="none" xmlns="http://www.w3.org/2000/svg">
<path d="M44.5118 4.93818L42.2794 2.36759C42.0765 2.16465 41.7383 2.097 41.4677 2.16465C38.7618 3.3823 37.003 5.6823 35.9883 7.44112C35.1765 8.79406 33.7559 9.74112 32.0647 10.0794C31.253 10.147 30.4412 10.4176 29.7647 10.8235C29.7647 10.8235 29.7647 10.8235 29.6971 10.8235C27.6677 12.2441 25.2324 14.4764 22.053 17.9264C21.7824 18.197 21.85 18.6029 22.1206 18.8735C22.2559 19.0088 22.3912 19.0764 22.5941 19.0764C22.7971 19.0764 22.9324 19.0088 23.0677 18.8735C25.7736 15.897 27.9383 13.8676 29.6971 12.5146C30.3736 14.1382 31.6588 15.6264 33.35 16.5735C31.9971 18.1294 28.1412 22.4588 21.7824 27.8705C21.5118 28.1411 21.4441 28.547 21.7147 28.8176C21.85 28.9529 22.053 29.0882 22.2559 29.0882C22.3912 29.0882 22.5941 29.0205 22.6618 28.9529C29.4941 23.1352 33.4853 18.5352 34.5677 17.2499C35.65 17.6558 36.8 17.9264 37.8824 17.9264C38.5588 17.9264 39.2353 17.8588 39.9118 17.6558C39.8441 18.8058 39.303 20.4294 38.4912 21.3088C31.3206 29.6294 23 35.7852 13.9353 39.5058C13.5971 39.6411 13.3941 40.047 13.5971 40.3852C13.7324 40.6558 13.9353 40.7911 14.2059 40.7911C14.2736 40.7911 14.4088 40.7911 14.4765 40.7235C23.7441 36.9352 32.2 30.6441 39.6412 22.1205C40.7912 20.7676 41.603 18.1294 41.3324 16.5058C41.1971 15.7617 40.9941 15.0852 40.6559 14.4088C40.0471 13.1911 39.8441 11.8382 40.0471 10.5529C40.1147 10.2146 39.8441 9.80877 39.5059 9.80877C39.1677 9.74112 38.7618 10.0117 38.7618 10.3499C38.4912 11.9058 38.7618 13.5294 39.5059 15.0176C39.7088 15.4235 39.8441 15.8294 39.9794 16.2352C38.4236 16.7088 36.5294 16.5735 34.8383 15.7617C33.0118 14.8823 31.5236 13.3941 30.9824 11.7705C31.4559 11.5676 31.8618 11.4323 32.403 11.3646C34.5 10.9588 36.2588 9.80877 37.2059 8.11759C38.0853 6.697 39.5059 4.73524 41.6706 3.65288L42.9559 5.14112C42.2118 5.47936 41.4677 5.95288 40.7912 6.62936C40.5206 6.89994 40.5206 7.30583 40.7912 7.57641C41.0618 7.847 41.4677 7.847 41.7383 7.57641C42.55 6.8323 43.3618 6.29112 44.2412 6.08818C44.4441 6.02053 44.6471 5.88524 44.7147 5.61465C44.7147 5.34406 44.6471 5.07347 44.5118 4.93818Z" fill="#F26A21"/>
<path d="M11.2294 40.5206C8.72649 41.4 6.2912 42.0088 3.92355 42.4823C9.6059 39.0323 15.0177 35.2441 20.0912 31.1853C20.3618 30.9823 20.4294 30.5088 20.1588 30.2382C19.9559 29.9676 19.4824 29.9 19.2118 30.1706C14.1383 34.2294 8.65885 38.0853 2.97649 41.5353C3.78826 40.6558 4.87061 39.5058 6.2912 37.95C9.67355 34.3647 12.853 30.6441 16.0324 26.9911C17.7912 24.9617 19.4147 23.0676 21.0383 21.2411C21.3088 20.9706 21.2412 20.5647 20.9706 20.2941C20.7 20.0235 20.2941 20.0911 20.0236 20.3617C18.4 22.1882 16.7765 24.0823 15.0177 26.1117C11.9059 29.697 8.65885 33.4853 5.34414 37.0029C3.8559 38.5588 2.77355 39.7764 1.96179 40.6558C1.42061 41.2647 1.28532 42.1441 1.6912 42.8882C1.6912 42.9558 1.75885 42.9558 1.75885 42.9558V43.0235C1.75885 43.0911 1.82649 43.1588 1.89414 43.1588C2.23237 43.6323 2.77355 43.9029 3.38237 43.9029H3.72061C6.2912 43.497 8.99708 42.7529 11.7706 41.8058C12.1088 41.6706 12.3118 41.2647 12.1765 40.9264C11.9736 40.5882 11.5677 40.3853 11.2294 40.5206Z" fill="#F26A21"/>
</svg>
