<svg width="15" height="15" viewBox="0 0 15 15" fill="none" xmlns="http://www.w3.org/2000/svg">
<g clip-path="url(#clip0_161_3280)">
<path d="M10.02 7.49999C12.825 6.44999 14.7 3.74999 14.7 0.749988C14.7 0.494988 14.505 0.299988 14.25 0.299988C11.25 0.299988 8.55005 2.17499 7.50005 4.97999C6.45005 2.17499 3.75005 0.299988 0.750049 0.299988C0.495049 0.299988 0.300049 0.494988 0.300049 0.749988C0.300049 3.74999 2.17505 6.44999 4.98005 7.49999C2.17505 8.54999 0.300049 11.25 0.300049 14.25C0.300049 14.505 0.495049 14.7 0.750049 14.7C3.75005 14.7 6.45005 12.825 7.50005 10.02C8.55005 12.825 11.25 14.7 14.25 14.7C14.505 14.7 14.7 14.505 14.7 14.25C14.7 11.25 12.825 8.54999 10.02 7.49999ZM3.04505 5.20499C1.98005 4.13999 1.32005 2.72999 1.21505 1.21499C4.32005 1.45499 6.79505 3.91499 7.03505 7.03499C5.52005 6.92999 4.11005 6.26999 3.04505 5.20499ZM5.20505 11.955C4.14005 13.02 2.73005 13.68 1.21505 13.785C1.44005 10.68 3.91505 8.20499 7.03505 7.96499C6.93005 9.47999 6.27005 10.89 5.20505 11.955ZM9.79505 3.04499C10.86 1.97999 12.27 1.31999 13.785 1.21499C13.545 4.31999 11.085 6.79499 7.96505 7.03499C8.07005 5.51999 8.73005 4.10999 9.79505 3.04499ZM9.79505 11.955C8.73005 10.89 8.07005 9.47999 7.96505 7.96499C11.07 8.18999 13.545 10.665 13.785 13.785C12.27 13.68 10.86 13.02 9.79505 11.955Z" fill="white"/>
</g>
<defs>
<clipPath id="clip0_161_3280">
<rect width="15" height="15" fill="white"/>
</clipPath>
</defs>
</svg>
